<?xml version="1.0" encoding="UTF-8"?>
<svg id="Layer_1" xmlns="http://www.w3.org/2000/svg" version="1.1" xmlns:xlink="http://www.w3.org/1999/xlink" viewBox="0 0 1982.96 1051.87">
  <!-- Generator: Adobe Illustrator 29.7.1, SVG Export Plug-In . SVG Version: 2.1.1 Build 8)  -->
  <defs>
    <style>
      .st0 {
        fill: url(#linear-gradient2);
      }

      .st1 {
        filter: url(#drop-shadow-2);
      }

      .st2 {
        fill: url(#linear-gradient10);
      }

      .st3 {
        fill: #fff;
      }

      .st4 {
        fill: url(#linear-gradient1);
      }

      .st5 {
        fill: url(#linear-gradient9);
      }

      .st6 {
        fill: url(#linear-gradient8);
      }

      .st7 {
        fill: url(#linear-gradient11);
      }

      .st8 {
        fill: none;
      }

      .st9 {
        fill: url(#radial-gradient);
      }

      .st10 {
        fill: url(#radial-gradient1);
      }

      .st11 {
        filter: url(#drop-shadow-1);
      }

      .st12 {
        fill: url(#linear-gradient12);
      }

      .st13 {
        fill: url(#linear-gradient7);
      }

      .st14 {
        fill: url(#linear-gradient4);
      }

      .st15 {
        fill: url(#linear-gradient14);
      }

      .st16 {
        fill: url(#linear-gradient5);
      }

      .st17 {
        fill: url(#linear-gradient3);
      }

      .st18 {
        fill: url(#linear-gradient15);
      }

      .st19 {
        fill: #fcb316;
      }

      .st20 {
        fill: url(#linear-gradient6);
      }

      .st21 {
        fill: url(#linear-gradient13);
      }

      .st22 {
        fill: url(#linear-gradient);
      }

      .st23 {
        fill: #13274b;
      }
    </style>
    <linearGradient id="linear-gradient" x1="836.89" y1="-113.23" x2="836.89" y2="-796.75" gradientUnits="userSpaceOnUse">
      <stop offset="0" stop-color="#3c67b1"/>
      <stop offset="1" stop-color="#182f56"/>
    </linearGradient>
    <linearGradient id="linear-gradient1" x1="558.59" y1="-479.64" x2="672.58" y2="-479.64" gradientUnits="userSpaceOnUse">
      <stop offset="0" stop-color="#182f56"/>
      <stop offset="1" stop-color="#20427b"/>
    </linearGradient>
    <linearGradient id="linear-gradient2" x1="183.39" y1="-557.44" x2="119.21" y2="-531.31" gradientUnits="userSpaceOnUse">
      <stop offset="0" stop-color="#182f56"/>
      <stop offset="1" stop-color="#20427b"/>
    </linearGradient>
    <linearGradient id="linear-gradient3" x1="592.47" y1="-556.41" x2="653.57" y2="-529.51" gradientUnits="userSpaceOnUse">
      <stop offset="0" stop-color="#182f56"/>
      <stop offset="1" stop-color="#20427b"/>
    </linearGradient>
    <linearGradient id="linear-gradient4" x1="209.96" y1="-585.35" x2="563.01" y2="-585.35" gradientUnits="userSpaceOnUse">
      <stop offset="0" stop-color="#20427b"/>
      <stop offset="1" stop-color="#182f56"/>
    </linearGradient>
    <linearGradient id="linear-gradient5" x1="100.39" y1="-479.64" x2="214.38" y2="-479.64" gradientUnits="userSpaceOnUse">
      <stop offset="0" stop-color="#20427b"/>
      <stop offset="1" stop-color="#182f56"/>
    </linearGradient>
    <linearGradient id="linear-gradient6" x1="229.23" y1="-359.42" x2="543.75" y2="-359.42" xlink:href="#linear-gradient4"/>
    <linearGradient id="linear-gradient7" x1="444.29" y1="-223.46" x2="444.29" y2="-382.29" gradientUnits="userSpaceOnUse">
      <stop offset="0" stop-color="#182f56"/>
      <stop offset="1" stop-color="#20427b"/>
    </linearGradient>
    <filter id="drop-shadow-1" x="310.74" y="-453.85" width="151.78" height="151.78" filterUnits="userSpaceOnUse">
      <feOffset dx=".3" dy=".3"/>
      <feGaussianBlur result="blur" stdDeviation="0"/>
      <feFlood flood-color="#231f20" flood-opacity=".45"/>
      <feComposite in2="blur" operator="in"/>
      <feComposite in="SourceGraphic"/>
    </filter>
    <radialGradient id="radial-gradient" cx="386.48" cy="-378.11" fx="386.48" fy="-378.11" r="41.26" gradientUnits="userSpaceOnUse">
      <stop offset="0" stop-color="#244c8d"/>
      <stop offset="1" stop-color="#182f56"/>
    </radialGradient>
    <linearGradient id="linear-gradient8" x1="962.8" y1="849.62" x2="962.8" y2="231.35" xlink:href="#linear-gradient"/>
    <linearGradient id="linear-gradient9" x1="684.5" y1="483.41" x2="798.49" y2="483.41" xlink:href="#linear-gradient1"/>
    <linearGradient id="linear-gradient10" x1="309.3" y1="405.61" x2="245.12" y2="431.74" xlink:href="#linear-gradient2"/>
    <linearGradient id="linear-gradient11" x1="718.38" y1="406.64" x2="779.48" y2="433.54" xlink:href="#linear-gradient3"/>
    <linearGradient id="linear-gradient12" x1="335.87" y1="377.7" x2="688.92" y2="377.7" xlink:href="#linear-gradient4"/>
    <linearGradient id="linear-gradient13" x1="226.3" y1="483.41" x2="340.29" y2="483.41" xlink:href="#linear-gradient5"/>
    <linearGradient id="linear-gradient14" x1="355.14" y1="603.63" x2="669.66" y2="603.63" xlink:href="#linear-gradient4"/>
    <linearGradient id="linear-gradient15" x1="570.2" y1="739.59" x2="570.2" y2="580.76" xlink:href="#linear-gradient7"/>
    <filter id="drop-shadow-2" x="436.65" y="509.2" width="151.78" height="151.78" filterUnits="userSpaceOnUse">
      <feOffset dx=".3" dy=".3"/>
      <feGaussianBlur result="blur1" stdDeviation="0"/>
      <feFlood flood-color="#231f20" flood-opacity=".45"/>
      <feComposite in2="blur1" operator="in"/>
      <feComposite in="SourceGraphic"/>
    </filter>
    <radialGradient id="radial-gradient1" cx="512.39" cy="584.94" fx="512.39" fy="584.94" r="41.26" xlink:href="#radial-gradient"/>
  </defs>
  <g>
    <path class="st23" d="M934.92-576.12h36.57c8.74,0,16.46,1.67,23.17,5,6.71,3.33,11.92,8.03,15.64,14.09,3.72,6.06,5.58,13.11,5.58,21.16s-1.86,15.1-5.58,21.16c-3.72,6.06-8.93,10.75-15.64,14.09-6.71,3.33-14.43,5-23.17,5h-36.57v-80.5ZM970.57-510.91c8.05,0,14.47-2.24,19.26-6.73,4.79-4.48,7.19-10.56,7.19-18.23s-2.4-13.74-7.19-18.23c-4.79-4.48-11.21-6.73-19.26-6.73h-17.02v49.91h17.02Z"/>
    <path class="st23" d="M1081.77-512.87h-37.38l-7.13,17.25h-19.09l35.88-80.5h18.4l36,80.5h-19.55l-7.13-17.25ZM1075.91-527.01l-12.77-30.82-12.76,30.82h25.53Z"/>
    <path class="st23" d="M1129.5-560.94h-25.76v-15.18h70.15v15.18h-25.76v65.32h-18.63v-65.32Z"/>
    <path class="st23" d="M1232.88-512.87h-37.38l-7.13,17.25h-19.09l35.88-80.5h18.4l36,80.5h-19.55l-7.13-17.25ZM1227.02-527.01l-12.77-30.82-12.76,30.82h25.53Z"/>
    <path class="st23" d="M934.92-446.12h18.63v80.5h-18.63v-80.5Z"/>
    <path class="st23" d="M1046.47-446.12v80.5h-15.29l-40.13-48.88v48.88h-18.4v-80.5h15.41l40.02,48.88v-48.88h18.4Z"/>
    <path class="st23" d="M1139.39-446.12v80.5h-15.29l-40.13-48.88v48.88h-18.4v-80.5h15.41l40.02,48.88v-48.88h18.4Z"/>
    <path class="st23" d="M1174.87-369.64c-6.71-3.6-11.96-8.57-15.75-14.89-3.79-6.32-5.69-13.43-5.69-21.33s1.9-15.01,5.69-21.33,9.04-11.29,15.75-14.89c6.71-3.6,14.24-5.4,22.6-5.4s15.87,1.8,22.54,5.4c6.67,3.6,11.92,8.57,15.75,14.89,3.83,6.33,5.75,13.44,5.75,21.33s-1.92,15.01-5.75,21.33c-3.83,6.33-9.08,11.29-15.75,14.89-6.67,3.6-14.18,5.41-22.54,5.41s-15.89-1.8-22.6-5.41ZM1210.34-383.39c3.83-2.18,6.84-5.23,9.03-9.14s3.28-8.36,3.28-13.34-1.09-9.43-3.28-13.34c-2.18-3.91-5.19-6.96-9.03-9.14-3.83-2.19-8.13-3.28-12.88-3.28s-9.05,1.09-12.88,3.28c-3.83,2.19-6.84,5.23-9.03,9.14-2.18,3.91-3.28,8.36-3.28,13.34s1.09,9.43,3.28,13.34c2.19,3.91,5.19,6.96,9.03,9.14,3.83,2.19,8.12,3.28,12.88,3.28s9.04-1.09,12.88-3.28Z"/>
    <path class="st23" d="M1330.29-446.12l-34.85,80.5h-18.4l-34.73-80.5h20.12l24.5,57.5,24.84-57.5h18.52Z"/>
    <path class="st23" d="M1387.33-382.87h-37.38l-7.13,17.25h-19.09l35.88-80.5h18.4l36,80.5h-19.55l-7.13-17.25ZM1381.46-397.01l-12.77-30.82-12.76,30.82h25.53Z"/>
    <path class="st23" d="M1435.05-430.94h-25.76v-15.18h70.15v15.18h-25.76v65.32h-18.63v-65.32Z"/>
    <path class="st23" d="M1489.45-446.12h18.63v80.5h-18.63v-80.5Z"/>
    <path class="st23" d="M1543.56-369.64c-6.71-3.6-11.96-8.57-15.75-14.89-3.79-6.32-5.69-13.43-5.69-21.33s1.9-15.01,5.69-21.33,9.04-11.29,15.75-14.89c6.71-3.6,14.24-5.4,22.6-5.4s15.87,1.8,22.54,5.4c6.67,3.6,11.92,8.57,15.75,14.89,3.83,6.33,5.75,13.44,5.75,21.33s-1.92,15.01-5.75,21.33c-3.83,6.33-9.08,11.29-15.75,14.89-6.67,3.6-14.18,5.41-22.54,5.41s-15.89-1.8-22.6-5.41ZM1579.03-383.39c3.83-2.18,6.84-5.23,9.03-9.14s3.28-8.36,3.28-13.34-1.09-9.43-3.28-13.34c-2.18-3.91-5.19-6.96-9.03-9.14-3.83-2.19-8.13-3.28-12.88-3.28s-9.05,1.09-12.88,3.28c-3.83,2.19-6.84,5.23-9.03,9.14-2.18,3.91-3.28,8.36-3.28,13.34s1.09,9.43,3.28,13.34c2.19,3.91,5.19,6.96,9.03,9.14,3.83,2.19,8.12,3.28,12.88,3.28s9.04-1.09,12.88-3.28Z"/>
    <path class="st23" d="M1698.06-446.12v80.5h-15.29l-40.13-48.88v48.88h-18.4v-80.5h15.41l40.02,48.88v-48.88h18.4Z"/>
    <path class="st23" d="M987.93-252.87h-37.38l-7.13,17.25h-19.09l35.88-80.5h18.4l36,80.5h-19.55l-7.13-17.25ZM982.07-267.01l-12.77-30.82-12.76,30.82h25.53Z"/>
    <path class="st23" d="M1096.84-316.12v80.5h-15.29l-40.13-48.88v48.88h-18.4v-80.5h15.41l40.02,48.88v-48.88h18.4Z"/>
    <path class="st23" d="M1115.93-316.12h36.57c8.74,0,16.46,1.67,23.17,5,6.71,3.33,11.92,8.03,15.64,14.09,3.72,6.06,5.58,13.11,5.58,21.16s-1.86,15.1-5.58,21.16c-3.72,6.06-8.93,10.75-15.64,14.09-6.71,3.33-14.43,5-23.17,5h-36.57v-80.5ZM1151.58-250.91c8.05,0,14.47-2.24,19.26-6.73,4.79-4.49,7.19-10.56,7.19-18.23s-2.4-13.74-7.19-18.23c-4.79-4.49-11.21-6.73-19.26-6.73h-17.02v49.91h17.02Z"/>
    <path class="st23" d="M1296.48-252.87h-37.38l-7.13,17.25h-19.09l35.88-80.5h18.4l36,80.5h-19.55l-7.13-17.25ZM1290.61-267.01l-12.77-30.82-12.76,30.82h25.53Z"/>
    <path class="st23" d="M1331.55-316.12h18.63v80.5h-18.63v-80.5Z"/>
    <path class="st23" d="M1401.82-316.12h18.63v65.32h40.37v15.18h-59v-80.5Z"/>
    <path class="st23" d="M1524.98-252.87h-37.38l-7.13,17.25h-19.09l35.88-80.5h18.4l36,80.5h-19.55l-7.13-17.25ZM1519.12-267.01l-12.77-30.82-12.76,30.82h25.53Z"/>
    <path class="st23" d="M1629.98-270.18c2.61,3.41,3.91,7.61,3.91,12.59,0,7.05-2.74,12.48-8.22,16.27-5.48,3.79-13.47,5.69-23.98,5.69h-41.63v-80.5h39.33c9.81,0,17.35,1.88,22.6,5.63,5.25,3.76,7.88,8.86,7.88,15.29,0,3.91-.94,7.4-2.82,10.46-1.88,3.07-4.5,5.48-7.88,7.25,4.6,1.46,8.2,3.89,10.81,7.3ZM1578.57-302.09v18.97h18.52c4.6,0,8.09-.8,10.46-2.42,2.38-1.61,3.57-3.99,3.57-7.13s-1.19-5.5-3.57-7.07c-2.38-1.57-5.87-2.36-10.46-2.36h-18.52ZM1611.41-252.06c2.49-1.61,3.74-4.1,3.74-7.47,0-6.67-4.95-10-14.83-10h-21.74v19.89h21.74c4.91,0,8.61-.8,11.1-2.42Z"/>
  </g>
  <rect class="st22" x="830.45" y="-799.72" width="12.88" height="684.37"/>
  <circle class="st23" cx="395.3" cy="-778.03" r="11.48"/>
  <circle class="st23" cx="551.31" cy="-693.32" r="3.82"/>
  <circle class="st23" cx="344.65" cy="-688.5" r="10.08"/>
  <circle class="st23" cx="211.69" cy="-673.97" r="10.9"/>
  <circle class="st23" cx="284.62" cy="-722.19" r="6.79"/>
  <circle class="st23" cx="371.61" cy="-649.87" r="2.48"/>
  <circle class="st23" cx="125.46" cy="-644.75" r="3.54"/>
  <circle class="st23" cx="37.76" cy="-444.61" r="11.48"/>
  <circle class="st23" cx="48.38" cy="-327.48" r="8.7"/>
  <circle class="st23" cx="184.66" cy="-417.27" r="3.97"/>
  <circle class="st23" cx="486.31" cy="-720.04" r="17.69"/>
  <circle class="st23" cx="39.53" cy="-623.75" r="17.69"/>
  <circle class="st23" cx="147.47" cy="-388.9" r="10.95"/>
  <circle class="st23" cx="135.27" cy="-189.75" r="11.25"/>
  <circle class="st23" cx="663.37" cy="-208.87" r="3.54"/>
  <circle class="st23" cx="741.14" cy="-413.69" r="11.48"/>
  <circle class="st23" cx="736.02" cy="-538.54" r="8.7"/>
  <circle class="st23" cx="590.1" cy="-437.01" r="3.97"/>
  <circle class="st23" cx="682.52" cy="-332.94" r="17.69"/>
  <circle class="st23" cx="720.02" cy="-473.59" r="10.95"/>
  <circle class="st23" cx="733.44" cy="-642.97" r="10.61"/>
  <polygon class="st23" points="400.23 -563.09 398.23 -563.09 398.23 -639.81 364.11 -673.65 364.11 -748.17 379.6 -763.67 381.01 -762.25 366.11 -747.35 366.11 -674.48 400.23 -640.64 400.23 -563.09"/>
  <path class="st23" d="M395.3-756.33c-11.96,0-21.69-9.73-21.69-21.69s9.73-21.69,21.69-21.69,21.69,9.73,21.69,21.69-9.73,21.69-21.69,21.69ZM395.3-797.72c-10.86,0-19.69,8.83-19.69,19.69s8.83,19.69,19.69,19.69,19.69-8.83,19.69-19.69-8.83-19.69-19.69-19.69Z"/>
  <path class="st23" d="M426.09-676.22c-6.11,0-11.08-4.97-11.08-11.08s4.97-11.08,11.08-11.08,11.08,4.97,11.08,11.08-4.97,11.08-11.08,11.08ZM426.09-696.39c-5.01,0-9.08,4.08-9.08,9.08s4.08,9.08,9.08,9.08,9.08-4.08,9.08-9.08-4.08-9.08-9.08-9.08Z"/>
  <path class="st23" d="M43.38-558.46c-6.11,0-11.08-4.97-11.08-11.08s4.97-11.08,11.08-11.08,11.08,4.97,11.08,11.08-4.97,11.08-11.08,11.08ZM43.38-578.63c-5.01,0-9.08,4.08-9.08,9.08s4.08,9.08,9.08,9.08,9.08-4.08,9.08-9.08-4.08-9.08-9.08-9.08Z"/>
  <path class="st23" d="M371.61-642.09c-4.29,0-7.78-3.49-7.78-7.78s3.49-7.78,7.78-7.78,7.78,3.49,7.78,7.78-3.49,7.78-7.78,7.78ZM371.61-656.25c-3.51,0-6.37,2.86-6.37,6.37s2.86,6.37,6.37,6.37,6.37-2.86,6.37-6.37-2.86-6.37-6.37-6.37Z"/>
  <path class="st23" d="M284.62-705.3c-9.31,0-16.89-7.58-16.89-16.89s7.58-16.89,16.89-16.89,16.89,7.58,16.89,16.89-7.58,16.89-16.89,16.89ZM284.62-737.08c-8.21,0-14.89,6.68-14.89,14.89s6.68,14.89,14.89,14.89,14.89-6.68,14.89-14.89-6.68-14.89-14.89-14.89Z"/>
  <path class="st23" d="M125.46-633.66c-6.11,0-11.08-4.97-11.08-11.08s4.97-11.08,11.08-11.08,11.08,4.97,11.08,11.08-4.97,11.08-11.08,11.08ZM125.46-653.83c-5.01,0-9.08,4.08-9.08,9.08s4.08,9.08,9.08,9.08,9.08-4.08,9.08-9.08-4.08-9.08-9.08-9.08Z"/>
  <path class="st23" d="M37.76-422.92c-11.96,0-21.69-9.73-21.69-21.69s9.73-21.69,21.69-21.69,21.69,9.73,21.69,21.69-9.73,21.69-21.69,21.69ZM37.76-464.31c-10.86,0-19.69,8.83-19.69,19.69s8.83,19.69,19.69,19.69,19.69-8.83,19.69-19.69-8.83-19.69-19.69-19.69Z"/>
  <path class="st23" d="M48.38-310.8c-9.2,0-16.68-7.48-16.68-16.68s7.48-16.68,16.68-16.68,16.68,7.48,16.68,16.68-7.48,16.68-16.68,16.68ZM48.38-342.15c-8.09,0-14.68,6.58-14.68,14.68s6.58,14.68,14.68,14.68,14.68-6.58,14.68-14.68-6.58-14.68-14.68-14.68Z"/>
  <path class="st23" d="M184.66-406.24c-6.08,0-11.04-4.95-11.04-11.04s4.95-11.04,11.04-11.04,11.04,4.95,11.04,11.04-4.95,11.04-11.04,11.04ZM184.66-426.31c-4.98,0-9.04,4.05-9.04,9.04s4.05,9.04,9.04,9.04,9.04-4.05,9.04-9.04-4.05-9.04-9.04-9.04Z"/>
  <rect class="st23" x="425.09" y="-677.22" width="2" height="114.13"/>
  <path class="st23" d="M609.77-638.68c-5.05-3.45-6.35-10.36-2.91-15.4s10.36-6.35,15.4-2.91c5.05,3.45,6.35,10.36,2.91,15.4-3.45,5.05-10.36,6.35-15.4,2.91ZM621.14-655.33c-4.14-2.82-9.8-1.76-12.62,2.38s-1.76,9.8,2.38,12.62,9.8,1.76,12.62-2.38,1.76-9.8-2.38-12.62Z"/>
  <rect class="st23" x="521.1" y="-593.37" width="114.13" height="2" transform="translate(741.45 219.12) rotate(-55.68)"/>
  <polygon class="st23" points="453.85 -563.09 451.85 -563.09 451.85 -640.74 485.31 -674 485.31 -703.79 487.31 -703.79 487.31 -673.17 453.85 -639.91 453.85 -563.09"/>
  <path class="st23" d="M551.31-681.61c-6.46,0-11.71-5.25-11.71-11.71s5.25-11.71,11.71-11.71,11.71,5.25,11.71,11.71-5.25,11.71-11.71,11.71ZM551.31-703.02c-5.35,0-9.71,4.35-9.71,9.71s4.35,9.71,9.71,9.71,9.71-4.35,9.71-9.71-4.35-9.71-9.71-9.71Z"/>
  <polygon class="st23" points="491.71 -572.12 489.71 -572.12 489.71 -633.52 542.77 -685.58 544.17 -684.15 491.71 -632.68 491.71 -572.12"/>
  <rect class="st23" x="370.9" y="-642.8" width="1.4" height="37.29"/>
  <circle class="st23" cx="220.96" cy="-638.84" r="2.48"/>
  <path class="st23" d="M220.96-631.06c-4.29,0-7.78-3.49-7.78-7.78s3.49-7.78,7.78-7.78,7.78,3.49,7.78,7.78-3.49,7.78-7.78,7.78ZM220.96-645.21c-3.51,0-6.37,2.86-6.37,6.37s2.86,6.37,6.37,6.37,6.37-2.86,6.37-6.37-2.86-6.37-6.37-6.37Z"/>
  <rect class="st23" x="220.26" y="-631.76" width="1.4" height="37.29"/>
  <rect class="st23" x="343.65" y="-679.31" width="2" height="86.22"/>
  <polygon class="st23" points="318.7 -563.09 316.7 -563.09 316.7 -640.49 283.62 -674.13 283.62 -706.66 285.62 -706.66 285.62 -674.95 318.7 -641.31 318.7 -563.09"/>
  <polygon class="st23" points="291.74 -563.09 289.74 -563.09 289.74 -623.47 240.62 -672.97 220.96 -672.97 220.96 -674.97 241.45 -674.97 291.74 -624.29 291.74 -563.09"/>
  <circle class="st23" cx="609.16" cy="-717.51" r="6.79"/>
  <path class="st23" d="M621.1-729.45c6.59,6.59,6.59,17.3,0,23.89-6.59,6.59-17.3,6.59-23.89,0-6.59-6.59-6.59-17.3,0-23.89,6.59-6.59,17.3-6.59,23.89,0ZM598.63-706.98c5.81,5.81,15.25,5.81,21.06,0,5.81-5.81,5.81-15.25,0-21.06-5.81-5.81-15.25-5.81-21.06,0-5.81,5.81-5.81,15.25,0,21.06Z"/>
  <polygon class="st23" points="597.47 -707.23 598.88 -705.82 576.46 -683.39 576.05 -636.22 520.75 -580.91 519.33 -582.33 574.06 -637.05 574.47 -684.23 597.47 -707.23"/>
  <polygon class="st23" points="246.76 -583.81 184.98 -583.81 131.64 -637.16 133.05 -638.57 185.81 -585.81 246.76 -585.81 246.76 -583.81"/>
  <polygon class="st23" points="196.77 -589.48 119.21 -589.48 86.52 -622.75 54.83 -622.75 54.83 -624.75 87.36 -624.75 120.05 -591.48 196.77 -591.48 196.77 -589.48"/>
  <rect class="st23" x="52.35" y="-571.41" width="116.14" height="2"/>
  <polygon class="st23" points="143.32 -414.75 67.09 -414.75 66.8 -415.03 51.43 -430 52.89 -431.37 67.9 -416.75 142.5 -416.75 175.48 -449.15 253.03 -449.15 253.03 -447.15 176.3 -447.15 143.32 -414.75"/>
  <circle class="st23" cx="134.07" cy="-714.75" r="8.93"/>
  <path class="st23" d="M141.56-699.63c-8.34,4.13-18.48.71-22.61-7.63-4.13-8.34-.71-18.48,7.63-22.61,8.34-4.13,18.48-.71,22.61,7.63,4.13,8.34.71,18.48-7.62,22.61ZM140.87-701.02c7.57-3.75,10.67-12.96,6.92-20.53-3.75-7.57-12.96-10.67-20.53-6.92-7.57,3.75-10.67,12.96-6.92,20.53,3.75,7.57,12.96,10.67,20.53,6.92Z"/>
  <polygon class="st23" points="191.34 -651.5 165.01 -704.62 164.72 -704.73 148.96 -710.27 148.35 -708.84 163.9 -703.36 189.67 -651.38 178.47 -617.2 205.26 -563.16 206.65 -563.86 180.15 -617.32 191.34 -651.5"/>
  <rect class="st23" x="195.27" y="-418.27" width="53.62" height="2"/>
  <rect class="st23" x="155.92" y="-389.9" width="86.6" height="2"/>
  <circle class="st23" cx="59.07" cy="-532.58" r="3.97"/>
  <circle class="st23" cx="25.21" cy="-500.69" r="10.95"/>
  <path class="st23" d="M59.07-521.54c-6.08,0-11.04-4.95-11.04-11.04s4.95-11.04,11.04-11.04,11.04,4.95,11.04,11.04-4.95,11.04-11.04,11.04ZM59.07-541.61c-4.98,0-9.04,4.05-9.04,9.04s4.05,9.04,9.04,9.04,9.04-4.05,9.04-9.04-4.05-9.04-9.04-9.04Z"/>
  <rect class="st23" x="69.68" y="-533.58" width="53.62" height="2"/>
  <rect class="st23" x="33.66" y="-501.69" width="86.6" height="2"/>
  <circle class="st23" cx="169.46" cy="-327.87" r="3.97"/>
  <circle class="st23" cx="132.26" cy="-299.49" r="10.95"/>
  <path class="st23" d="M169.46-316.84c-6.08,0-11.04-4.95-11.04-11.04s4.95-11.04,11.04-11.04,11.04,4.95,11.04,11.04-4.95,11.04-11.04,11.04ZM169.46-336.91c-4.98,0-9.04,4.05-9.04,9.04s4.05,9.04,9.04,9.04,9.04-4.05,9.04-9.04-4.05-9.04-9.04-9.04Z"/>
  <rect class="st23" x="180.07" y="-328.87" width="53.62" height="2"/>
  <rect class="st23" x="140.71" y="-300.49" width="86.6" height="2"/>
  <circle class="st23" cx="603.57" cy="-323.91" r="3.97"/>
  <circle class="st23" cx="641.49" cy="-290.11" r="10.95"/>
  <path class="st23" d="M592.53-323.91c0-6.08,4.95-11.04,11.04-11.04,6.08,0,11.04,4.95,11.04,11.04,0,6.08-4.95,11.04-11.04,11.04-6.09,0-11.04-4.95-11.04-11.04ZM594.53-323.91c0,4.98,4.05,9.04,9.04,9.04,4.98,0,9.04-4.05,9.04-9.04,0-4.98-4.05-9.04-9.04-9.04-4.98,0-9.04,4.05-9.04,9.04Z"/>
  <rect class="st23" x="539.33" y="-324.91" width="53.62" height="2"/>
  <rect class="st23" x="546.44" y="-291.11" width="86.6" height="2"/>
  <polygon class="st23" points="96.78 -327.82 64.06 -327.82 64.06 -329.82 95.95 -329.82 129.22 -362.89 231.57 -362.89 231.57 -360.89 130.04 -360.89 96.78 -327.82"/>
  <polygon class="st23" points="136.15 -198.77 134.03 -198.77 134.03 -222.72 187.54 -275.83 253.24 -275.83 253.24 -273.71 188.42 -273.71 136.15 -221.84 136.15 -198.77"/>
  <path class="st23" d="M650.49-378.37c-6.11,0-11.08-4.97-11.08-11.08s4.97-11.08,11.08-11.08,11.08,4.97,11.08,11.08-4.97,11.08-11.08,11.08ZM650.49-398.54c-5.01,0-9.08,4.08-9.08,9.08s4.08,9.08,9.08,9.08,9.08-4.08,9.08-9.08-4.08-9.08-9.08-9.08Z"/>
  <path class="st23" d="M663.37-197.78c-6.11,0-11.08-4.97-11.08-11.08s4.97-11.08,11.08-11.08,11.08,4.97,11.08,11.08-4.97,11.08-11.08,11.08ZM663.37-217.95c-5.01,0-9.08,4.08-9.08,9.08s4.08,9.08,9.08,9.08,9.08-4.08,9.08-9.08-4.08-9.08-9.08-9.08Z"/>
  <path class="st23" d="M741.14-392c-11.96,0-21.69-9.73-21.69-21.69s9.73-21.69,21.69-21.69,21.69,9.73,21.69,21.69-9.73,21.69-21.69,21.69ZM741.14-433.38c-10.86,0-19.69,8.83-19.69,19.69s8.83,19.69,19.69,19.69,19.69-8.83,19.69-19.69-8.83-19.69-19.69-19.69Z"/>
  <path class="st23" d="M736.02-521.86c-9.2,0-16.68-7.48-16.68-16.68s7.48-16.68,16.68-16.68,16.68,7.48,16.68,16.68-7.48,16.68-16.68,16.68ZM736.02-553.22c-8.09,0-14.68,6.58-14.68,14.68s6.58,14.68,14.68,14.68,14.68-6.58,14.68-14.68-6.58-14.68-14.68-14.68Z"/>
  <path class="st23" d="M590.1-425.98c-6.08,0-11.04-4.95-11.04-11.04s4.95-11.04,11.04-11.04,11.04,4.95,11.04,11.04-4.95,11.04-11.04,11.04ZM590.1-446.05c-4.98,0-9.04,4.05-9.04,9.04s4.05,9.04,9.04,9.04,9.04-4.05,9.04-9.04-4.05-9.04-9.04-9.04Z"/>
  <polygon class="st23" points="655.78 -215.04 603.02 -267.8 542.07 -267.8 542.07 -269.8 603.85 -269.8 657.19 -216.46 655.78 -215.04"/>
  <circle class="st23" cx="696.47" cy="-620.5" r="3.54"/>
  <path class="st23" d="M705.91-614.69c-3.2,5.21-10.04,6.84-15.25,3.64-5.21-3.2-6.84-10.04-3.64-15.25,3.2-5.21,10.04-6.84,15.25-3.64,5.21,3.2,6.84,10.04,3.64,15.25ZM688.72-625.25c-2.62,4.27-1.28,9.87,2.99,12.49,4.27,2.62,9.87,1.28,12.49-2.99,2.62-4.27,1.28-9.87-2.99-12.5-4.27-2.62-9.87-1.28-12.5,2.99Z"/>
  <polygon class="st23" points="687.23 -617.26 614.67 -599.91 582.77 -547.98 581.06 -549.02 613.4 -601.67 686.77 -619.21 687.23 -617.26"/>
  <polygon class="st23" points="667.22 -331.94 634.69 -331.94 602 -365.21 525.28 -365.21 525.28 -367.21 602.84 -367.21 635.53 -333.94 667.22 -333.94 667.22 -331.94"/>
  <rect class="st23" x="525.38" y="-389.6" width="116.14" height="2"/>
  <polygon class="st23" points="603.41 -409.15 525.87 -409.15 525.87 -411.15 602.6 -411.15 635.57 -443.56 711.8 -443.56 712.1 -443.27 727.34 -428.42 725.95 -426.99 710.99 -441.56 636.39 -441.56 603.41 -409.15"/>
  <rect class="st23" x="525.87" y="-438.01" width="53.62" height="2"/>
  <rect class="st23" x="624.97" y="-474.59" width="86.6" height="2"/>
  <polygon class="st23" points="655.18 -503.13 576.97 -503.13 576.97 -505.13 654.36 -505.13 687.62 -538.2 720.34 -538.2 720.34 -536.2 688.45 -536.2 655.18 -503.13"/>
  <polygon class="st23" points="684.13 -561.77 622.16 -561.77 622.16 -563.77 683.3 -563.77 732.61 -612.7 732.61 -634.46 734.61 -634.46 734.61 -611.87 684.13 -561.77"/>
  <path class="st23" d="M673.25-452.32c-15.14-2.24-121.36-18.14-124.63-18.54-3.27-.38-5.32-.49-5.16-4.13.15-3.22.93-20.79,1.31-29.54.05-1.21,1.05-2.16,2.27-2.16h135.24c1.45,2.2,3.12,3.87,5,4.8v38.62c0,3.46,1.24,13.21-14.03,10.94Z"/>
  <path class="st4" d="M637.71-472.48c-41.02-6.12-66.9-9.98-79.12-11.78.11-2.44.23-5.09.34-7.73h113.65v24.71c-6.62-.98-19.67-2.93-34.87-5.2Z"/>
  <path class="st23" d="M671.23-559.43c-.31-4.18-.62-7.84-5.73-10.84-104.64-61.31-245.67-61.31-279.01-61.31s-174.37,0-279.01,61.31c-5.11,3-5.42,6.66-5.73,10.84-.95,12.64-2.6,30.62-6.74,43.28h128.14c.87,0,1.58-.71,1.57-1.58,0-.52,0-1.04-.01-1.49,0-.85-.69-1.54-1.55-1.55l-1.52-.02c-.92-.01-1.66-.76-1.65-1.68,0-.02,0-.04,0-.07.02-3.01,1.44-5.83,3.81-7.7,29.89-23.54,131.07-21.69,162.69-21.41,31.62-.28,132.81-2.12,162.69,21.41,2.37,1.86,3.78,4.68,3.81,7.7,0,.02,0,.04,0,.07,0,.92-.73,1.67-1.65,1.68l-1.52.02c-.85.01-1.54.7-1.55,1.55,0,.46,0,.98-.01,1.49,0,.87.7,1.58,1.57,1.58h128.14c-4.15-12.66-5.8-30.64-6.74-43.28Z"/>
  <path class="st0" d="M161.05-576.38l33.92,42.27h-77.77c1.09-7.68,1.81-15.43,2.35-22.37,11.48-6.55,25.23-13.36,41.5-19.89Z"/>
  <path class="st17" d="M655.78-534.11h-77.95l33.95-42.31c16.33,6.55,30.12,13.38,41.65,19.94.54,6.96,1.26,14.7,2.35,22.37Z"/>
  <path class="st14" d="M563.01-592.63l-28.51,35.54c-26.82-8.59-67.87-12.67-125.72-12.67-7.35,0-13.82.07-18.98.11l-3.32.03-3.32-.03c-5.16-.05-11.61-.11-18.98-.11-57.85,0-98.9,4.08-125.72,12.67l-28.51-35.54c45.17-12.22,103.17-20.99,176.53-20.99s131.35,8.77,176.53,20.99Z"/>
  <path class="st23" d="M99.72-452.32c15.14-2.24,121.36-18.14,124.63-18.54,3.27-.38,5.32-.49,5.16-4.13-.15-3.22-.93-20.79-1.31-29.54-.05-1.21-1.05-2.16-2.27-2.16H90.69c-1.45,2.2-3.12,3.87-5,4.8v38.62c0,3.46-1.24,13.21,14.03,10.94Z"/>
  <path class="st16" d="M100.39-491.99h113.64c.12,2.63.23,5.29.34,7.73-12.28,1.81-38.2,5.67-79.28,11.81-15.13,2.26-28.12,4.2-34.71,5.18v-24.71Z"/>
  <polygon class="st23" points="515.77 -476.61 515.77 -529.17 476.41 -529.17 460.27 -491.99 515.77 -476.61"/>
  <polygon class="st23" points="484.76 -527.73 484.76 -552.23 508.69 -552.23 508.69 -524.27 484.76 -527.73"/>
  <path class="st23" d="M557.89-319.78l-46.94-174.81h-248.91l-46.94,174.81c-2.54,9.46-3.83,19.21-3.83,29v66.52h350.45v-66.52c0-9.79-1.29-19.54-3.83-29Z"/>
  <path class="st20" d="M229.23-242.22v-48.55c0-8.22,1.08-16.41,3.21-24.34l43.37-161.51h221.36l43.37,161.5c2.13,7.94,3.21,16.13,3.21,24.35v48.55H229.23Z"/>
  <path class="st23" d="M386.5-471.23c-49.11,0-89.37,38.02-92.9,86.22-.05.66-.09,1.33-.12,2-.09,1.62-.13,3.24-.13,4.88,0,.63.01,1.25.03,1.88,0,.67.02,1.34.06,2.01.23,5.79.99,11.44,2.24,16.92.18.83.39,1.65.61,2.47.71,2.85,1.58,5.65,2.58,8.39.49,1.37,1.01,2.71,1.56,4.05.41.98.84,1.94,1.28,2.91,1.22,2.69,2.58,5.3,4.03,7.85.78,1.35,1.59,2.68,2.44,3.99.66,1.02,1.34,2.02,2.04,3.01,7.89,11.23,18.2,20.64,30.18,27.48.8.47,1.61.91,2.45,1.34.22.12.45.24.68.36.66.35,1.33.69,2.01,1.02,12.35,6.08,26.26,9.48,40.96,9.48,8.31,0,16.36-1.09,24.03-3.13.79-.21,1.58-.43,2.36-.67,1.94-.56,3.85-1.2,5.73-1.89,1.05-.39,2.08-.78,3.09-1.2.77-.32,1.53-.64,2.28-.98,1.48-.65,2.95-1.34,4.39-2.07,1.33-.67,2.64-1.37,3.93-2.1,1.16-.65,2.3-1.34,3.41-2.02,2.57-1.6,5.05-3.34,7.43-5.16.67-.53,1.34-1.05,2-1.59,3.21-2.6,6.24-5.42,9.07-8.43.52-.53,1.02-1.07,1.5-1.62,4.75-5.27,8.91-11.09,12.36-17.35.5-.93,1.01-1.86,1.47-2.8,2.38-4.69,4.38-9.62,5.96-14.73.31-1.01.6-2.04.88-3.07,2.1-7.75,3.22-15.92,3.22-24.35,0-51.41-41.7-93.1-93.11-93.1ZM467.13-370.37c-.62,6.66-2.06,13.08-4.2,19.17-.39,1.11-.8,2.21-1.24,3.29-2.84,7.07-6.65,13.65-11.27,19.57-.46.6-.93,1.19-1.42,1.77-2.64,3.21-5.53,6.21-8.64,8.98l-.08.09c-2.6,2.31-5.35,4.45-8.24,6.4-.94.65-1.89,1.27-2.86,1.86-.28.18-.56.35-.84.52-1.11.69-2.25,1.34-3.4,1.95-2.1,1.14-4.26,2.18-6.47,3.13-.84.36-1.68.71-2.53,1.03-9.13,3.58-19.07,5.54-29.46,5.54-14.97,0-29.01-4.07-41.06-11.17-.68-.4-1.35-.8-2.01-1.22-.14-.08-.27-.17-.4-.25-.82-.53-1.62-1.05-2.42-1.61-14.56-10.02-25.68-24.68-31.24-41.86-.12-.36-.23-.71-.34-1.07-.25-.83-.49-1.65-.72-2.5-1.28-4.7-2.15-9.59-2.56-14.61-.19-2.22-.28-4.47-.28-6.75,0-1.5.04-2.99.13-4.47.03-.67.07-1.33.13-1.99,3.29-41.73,38.22-74.56,80.77-74.56,44.75,0,81.02,36.27,81.02,81.02,0,1.16-.02,2.31-.07,3.46-.06,1.44-.16,2.87-.3,4.28Z"/>
  <path class="st13" d="M464.59-293.42l-40.6.58c1.48-.65,2.95-1.34,4.39-2.07l33.37-.47c-1.87-5.03-4.39-11.34-7.53-18.83.52-.53,1.02-1.07,1.5-1.62,3.92,9.35,6.88,16.82,8.87,22.41Z"/>
  <path class="st19" d="M467.51-378.11c0,44.76-36.27,81.04-81.02,81.04s-81.04-36.27-81.04-81.04,36.3-81.02,81.04-81.02,81.02,36.27,81.02,81.02Z"/>
  <g class="st11">
    <path class="st8" d="M386.49-313.72c-35.54,0-64.39-28.82-64.39-64.39s28.85-64.38,64.39-64.38,64.38,28.82,64.38,64.38"/>
    <g>
      <circle class="st23" cx="386.49" cy="-313.72" r="11.35"/>
      <path class="st3" d="M391.61-313.34c-.08.89-.34,1.78-.79,2.67s-1.11,1.59-1.99,2.13c-.88.54-1.85.76-2.93.66-1.47-.13-2.63-.79-3.48-2-.85-1.2-1.21-2.58-1.08-4.12s.75-2.97,1.84-4.08c1.09-1.11,2.36-1.6,3.81-1.47.94.08,1.81.43,2.61,1.03.8.6,1.35,1.4,1.66,2.38.31.98.42,1.92.35,2.81ZM388.82-313.63c.14-1.6.05-2.86-.26-3.78-.31-.92-.83-1.41-1.54-1.48s-1.32.36-1.83,1.26-.85,2.22-1.01,3.97c-.14,1.61-.03,2.85.32,3.71s.88,1.32,1.56,1.38c.77.07,1.38-.32,1.84-1.16.46-.84.76-2.14.92-3.9Z"/>
    </g>
    <g>
      <circle class="st23" cx="354.28" cy="-322.34" r="11.35"/>
      <path class="st3" d="M349.99-319.26l5.07-6.03c.7-.84,1.09-1.42,1.15-1.77.06-.34-.07-.66-.41-.96-.25-.22-.39-.37-.42-.46-.03-.09-.01-.18.06-.27.12-.14.27-.14.44,0,.04.03.08.07.13.12.78.76,1.37,1.3,1.76,1.63.41.35,1.02.82,1.83,1.43.29.22.48.37.57.45.21.17.25.33.13.48-.08.09-.16.12-.25.09-.09-.03-.28-.14-.56-.34-.35-.25-.64-.37-.89-.36s-.45.07-.6.19-.46.43-.93.95l-3.02,3.59c-.51.61-.84,1.07-.97,1.36-.13.3-.16.56-.09.79.07.23.26.51.57.83.24.26.38.43.42.5.04.08.02.16-.05.24-.08.1-.17.13-.25.1-.09-.03-.25-.13-.48-.3-1.04-.74-2.09-1.24-3.14-1.5-.13-.03-.22-.07-.28-.12-.14-.12-.07-.33.2-.65Z"/>
    </g>
    <g>
      <circle class="st23" cx="330.72" cy="-345.9" r="11.35"/>
      <path class="st3" d="M335.12-351.24l2.47,6.76c.12.33.18.53.19.62s-.03.15-.12.18c-.11.04-.27-.02-.47-.17-.64-.46-1.65-1.06-3.04-1.8-1.39-.73-2.63-1.16-3.72-1.29-1.09-.13-2.1-.01-3.05.33-.54.2-.93.46-1.16.78-.23.32-.28.67-.14,1.04.16.44.48.8.95,1.09s1.06.44,1.75.45,1.34-.09,1.94-.31c.34-.12.57-.27.7-.44.13-.17.15-.37.07-.58-.1-.27-.35-.48-.74-.62-.38-.13-.7-.21-.95-.22-.24-.02-.38-.09-.43-.22-.06-.18-.02-.3.15-.35.25-.09.79-.01,1.62.24s1.37.75,1.64,1.5c.22.6.2,1.14-.07,1.63-.26.49-.63.83-1.12,1.01-1.13.41-2.39.19-3.8-.66-1.4-.85-2.31-1.85-2.73-2.99-.33-.91-.33-1.75.02-2.52s.92-1.3,1.74-1.6c.42-.15.89-.22,1.4-.2.52.02,1,.11,1.44.27.44.16,1.15.56,2.12,1.19.97.63,1.87,1.25,2.71,1.86l-.71-1.93c-.36-.99-.65-1.61-.88-1.86-.22-.25-.58-.44-1.09-.59-.38-.1-.59-.21-.63-.33-.06-.18,0-.3.18-.36.08-.03.2-.04.35-.03.99.09,2.12.13,3.38.13Z"/>
    </g>
    <g>
      <circle class="st23" cx="322.09" cy="-378.1" r="11.35"/>
      <path class="st3" d="M321.54-379.95c.18-1.03.58-1.73,1.2-2.11s1.23-.52,1.82-.41c.7.12,1.32.49,1.87,1.09.55.61.94,1.33,1.16,2.16.22.83.26,1.71.09,2.64-.18,1-.54,1.81-1.1,2.44s-1.16.88-1.81.76c-.42-.07-.73-.26-.93-.56-.2-.3-.27-.63-.21-.99.05-.31.22-.57.49-.78.27-.21.57-.29.9-.23.18.03.38.13.62.29.18.12.31.18.4.2.22.04.42-.05.6-.27.18-.22.3-.48.35-.77.13-.76-.36-1.53-1.49-2.3-1.13-.77-1.95-1.2-2.47-1.29-.28-.05-.52,0-.72.13-.2.13-.32.3-.35.5-.04.25.12.73.49,1.44.26.5.38.79.36.89-.04.2-.14.28-.32.25-.12-.02-.23-.12-.33-.3-.74-1.37-1.36-2.27-1.86-2.71-.5-.44-1-.7-1.49-.79-.46-.08-.84-.03-1.15.15-.31.18-.49.44-.55.79-.09.54.06,1.06.45,1.57.4.51.91.82,1.53.93.22.04.41.02.57-.07.16-.09.26-.2.28-.34.05-.3-.16-.66-.64-1.06-.11-.09-.15-.2-.13-.32.03-.19.14-.26.34-.23s.52.32.97.87c.44.54.61,1.13.5,1.76-.08.43-.29.77-.65,1.02s-.77.33-1.23.25c-.95-.17-1.67-.79-2.16-1.88-.49-1.08-.63-2.21-.43-3.39.17-.97.51-1.66,1.01-2.07.5-.4,1.01-.56,1.54-.47.31.06.62.22.92.49.3.27.52.54.67.81.15.27.45.89.89,1.88Z"/>
    </g>
    <g>
      <circle class="st23" cx="330.71" cy="-410.31" r="11.35"/>
      <path class="st3" d="M331.5-409.02c-1.16,1.37-2.21,2.7-3.15,3.99-.32-.36-.5-.61-.56-.75-.06-.14-.16-.72-.33-1.73s-.29-1.97-.39-2.87c-.09-.91-.17-1.8-.23-2.67-.06-.88-.07-1.41-.02-1.61.04-.2.12-.36.23-.49.13-.16.24-.25.33-.27.09-.02.19.03.31.13l.4.32,4.37,3.67c.9-1.08.96-2,.17-2.78-.19-.18-.22-.33-.11-.47s.28-.13.49.04c.06.05.14.13.25.24.39.39.8.76,1.22,1.11.25.21.49.4.71.57.39.28.63.46.71.53.23.19.28.36.15.51-.1.12-.32.09-.65-.08-.42-.22-.78-.31-1.09-.27s-.66.28-1.04.73c-.06.07-.15.19-.27.35l1.37,1.15c.58.49,1.01.75,1.29.78.28.03.6-.16.96-.57.17-.19.33-.23.47-.11.15.13.15.29-.02.49-.03.04-.19.21-.49.53-.71.77-1.24,1.36-1.57,1.75-.25.3-.56.71-.92,1.22-.07.11-.12.18-.16.22-.21.26-.36.4-.44.45-.08.04-.17.02-.26-.05-.14-.12-.09-.37.17-.74.2-.29.3-.53.31-.73,0-.2-.08-.41-.27-.65s-.85-.88-1.97-1.93ZM328.34-406.24l2.61-3.23c-.14-.13-.88-.77-2.24-1.91-.58-.49-.96-.8-1.14-.93l.24,2.37c.14,1.5.32,2.74.53,3.7Z"/>
    </g>
    <g>
      <circle class="st23" cx="354.27" cy="-433.87" r="11.35"/>
      <path class="st3" d="M351.66-436.13l.51,2.65c.31-.52.66-.96,1.07-1.31s.86-.62,1.36-.8c.95-.35,1.82-.33,2.62.05s1.36,1.01,1.68,1.88c.4,1.1.28,2.25-.36,3.46-.64,1.21-1.75,2.1-3.31,2.67-1.03.38-1.88.46-2.57.25-.69-.21-1.13-.59-1.34-1.16-.14-.38-.12-.73.06-1.06.18-.33.44-.56.8-.68s.68-.13.97,0c.29.14.48.34.58.6.06.15.09.36.1.64,0,.23.03.39.07.49.06.15.18.26.39.34s.47.05.8-.07c.88-.32,1.36-.96,1.45-1.93.09-.97-.05-1.95-.41-2.94-.23-.64-.55-1.06-.95-1.27-.4-.21-.78-.24-1.15-.11-.46.17-.84.5-1.12,1.01-.29.51-.41,1.02-.36,1.53.03.35-.02.55-.17.61-.19.07-.32,0-.4-.21-.05-.14-.28-1.21-.67-3.19-.4-1.99-.61-3.16-.63-3.53.73-.07,1.55-.27,2.46-.6,1.16-.42,1.86-1.08,2.11-1.98.08-.29.17-.45.27-.49.21-.08.35-.02.41.16.22.61.07,1.42-.46,2.42-.53,1-1.51,1.77-2.93,2.29-.2.07-.49.17-.87.29Z"/>
    </g>
    <g>
      <circle class="st23" cx="386.48" cy="-442.49" r="11.35"/>
      <path class="st3" d="M384.54-443.9c.42-.17.86-.27,1.29-.31.44-.04.88-.02,1.34.06,1.05.18,1.9.66,2.55,1.44.65.78.89,1.71.69,2.81s-.79,1.98-1.76,2.55c-.98.57-2.12.74-3.43.51-1.51-.27-2.59-.93-3.25-2-.66-1.07-.85-2.35-.59-3.83.32-1.83,1.16-3.28,2.51-4.35,1.35-1.07,2.97-1.44,4.86-1.11,1.03.18,1.79.51,2.27.98s.67.99.57,1.55c-.06.36-.26.64-.58.86-.32.22-.67.29-1.03.23-.38-.07-.68-.25-.87-.54-.2-.29-.26-.66-.19-1.09l.11-.58c.07-.42-.15-.68-.67-.77-.74-.13-1.46.1-2.17.69-.7.59-1.26,1.57-1.68,2.92ZM387.62-440.21c.18-.99.15-1.76-.06-2.31-.21-.55-.62-.87-1.23-.98-.64-.11-1.18.05-1.62.5-.44.45-.74,1.1-.89,1.96-.17.97-.12,1.76.14,2.39.27.63.69,1,1.27,1.1s1.07-.09,1.5-.58c.43-.49.72-1.18.88-2.09Z"/>
    </g>
    <g>
      <circle class="st23" cx="418.68" cy="-433.88" r="11.35"/>
      <path class="st3" d="M423.06-434.49l-2.8-2.36c-.74-.62-1.25-.98-1.53-1.07-.28-.09-.69-.06-1.24.08-.43.11-.68.13-.76.06-.15-.13-.16-.27-.02-.43s.65-.59,1.53-1.26c.88-.68,1.44-1.06,1.68-1.14.24-.08.4-.09.49,0,.1.08.13.24.08.46-.03.15,0,.3.08.46.09.16.45.52,1.09,1.07.64.55.99.86,1.07.92l3.18,2.67c-.27.18-.62.36-1.05.54-1.79.73-3.17,1.42-4.12,2.09s-1.93,1.55-2.95,2.65c-.66.72-1.2,1.16-1.61,1.3-.41.14-.82.04-1.24-.31-.3-.26-.48-.57-.52-.93s.06-.7.31-.99c.24-.28.64-.59,1.21-.93s1.55-.78,2.95-1.31l4.17-1.55Z"/>
    </g>
    <g>
      <circle class="st23" cx="442.24" cy="-410.32" r="11.35"/>
      <path class="st3" d="M443.65-408.8c-.04.84-.23,1.54-.58,2.08-.35.54-.85.93-1.5,1.17-.95.35-1.91.24-2.88-.33-.97-.57-1.68-1.44-2.11-2.63-.41-1.12-.48-2.13-.21-3.05.27-.91.74-1.49,1.42-1.74.47-.17,1.02-.16,1.64.03.62.19,1.25.61,1.88,1.26.08-.76.28-1.38.6-1.87.32-.48.76-.83,1.33-1.04.96-.35,1.87-.26,2.73.27.86.53,1.5,1.35,1.9,2.46s.46,1.97.24,2.77c-.22.79-.68,1.32-1.38,1.57-.44.16-.89.17-1.34.03-.46-.14-1.04-.47-1.76-.98ZM441.26-411.21c-.5-.31-.98-.5-1.45-.57s-.92-.03-1.37.13c-.59.21-.99.6-1.21,1.16-.22.56-.21,1.17.04,1.83.27.74.68,1.23,1.22,1.47.54.24,1.07.26,1.59.08.37-.14.67-.42.88-.84.22-.42.32-1.51.3-3.26ZM443.74-409.66c.34.25.73.41,1.16.5s.84.06,1.24-.08c.43-.16.79-.49,1.07-1,.28-.51.3-1.1.05-1.79-.23-.63-.6-1.07-1.1-1.32-.5-.24-.96-.29-1.38-.14-.27.1-.52.32-.75.67-.22.35-.33,1.09-.3,2.22.02.48.02.79.01.93Z"/>
    </g>
    <g>
      <circle class="st23" cx="450.87" cy="-378.11" r="11.35"/>
      <path class="st3" d="M450.88-375.72c-.38-.24-.72-.53-1.02-.85-.3-.32-.55-.69-.76-1.1-.49-.95-.62-1.93-.39-2.92.23-.99.83-1.74,1.83-2.24s2.04-.55,3.09-.11c1.05.44,1.88,1.25,2.48,2.43.69,1.36.81,2.63.35,3.8s-1.36,2.1-2.7,2.78c-1.66.85-3.33,1.05-4.99.61-1.67-.44-2.94-1.51-3.81-3.22-.5-.97-.69-1.79-.59-2.44.1-.65.4-1.11.91-1.36.32-.16.66-.18,1.03-.05.37.13.64.36.81.69.15.29.18.61.11.96s-.34.64-.78.86l-.52.26c-.39.2-.46.54-.22,1.01.36.7.99,1.14,1.89,1.31.9.17,2,.04,3.3-.41ZM451.98-380.4c-.89.45-1.49.93-1.8,1.43s-.32,1.02-.04,1.57.7.85,1.3.98c.6.13,1.32-.02,2.17-.46s1.49-.97,1.83-1.56c.34-.59.38-1.16.11-1.69s-.71-.8-1.36-.84c-.64-.05-1.38.14-2.2.56Z"/>
    </g>
  </g>
  <polygon class="st23" points="257.2 -476.61 257.2 -529.17 296.57 -529.17 312.71 -491.99 257.2 -476.61"/>
  <polygon class="st23" points="288.21 -527.73 288.21 -552.23 264.29 -552.23 264.29 -524.27 288.21 -527.73"/>
  <path class="st9" d="M427.74-378.11c0,22.8-18.47,41.27-41.25,41.27s-41.27-18.47-41.27-41.27,18.49-41.25,41.27-41.25,41.25,18.47,41.25,41.25Z"/>
  <path class="st23" d="M386.49-425.85c-26.38,0-47.75,21.38-47.75,47.74s21.38,47.75,47.75,47.75,47.74-21.38,47.74-47.75-21.36-47.74-47.74-47.74ZM386.49-336.84c-22.78,0-41.27-18.47-41.27-41.27s18.49-41.25,41.27-41.25,41.25,18.47,41.25,41.25-18.47,41.27-41.25,41.27Z"/>
  <g>
    <path class="st23" d="M211.26-216.18h45.8c10.95,0,20.62,2.09,29.02,6.27,8.4,4.18,14.93,10.06,19.59,17.65,4.66,7.59,6.99,16.42,6.99,26.5s-2.33,18.92-6.99,26.5c-4.66,7.59-11.19,13.47-19.59,17.64-8.4,4.18-18.08,6.27-29.02,6.27h-45.8v-100.83ZM255.91-134.51c10.08,0,18.12-2.81,24.13-8.43,6-5.62,9-13.23,9-22.83s-3-17.21-9-22.83c-6-5.62-14.04-8.43-24.13-8.43h-21.32v62.51h21.32Z"/>
    <path class="st23" d="M330.24-216.18h23.33v100.83h-23.33v-100.83Z"/>
    <path class="st23" d="M443.89-136.96h-46.81l-8.93,21.61h-23.91l44.94-100.83h23.05l45.09,100.83h-24.49l-8.93-21.61ZM436.54-154.67l-15.99-38.6-15.99,38.6h31.98Z"/>
    <path class="st23" d="M487.82-216.18h23.33v81.82h50.56v19.01h-73.89v-100.83Z"/>
  </g>
  <rect class="st6" x="956.36" y="228.66" width="12.88" height="619.04"/>
  <circle class="st23" cx="521.21" cy="185.02" r="11.48"/>
  <circle class="st23" cx="677.22" cy="269.73" r="3.82"/>
  <circle class="st23" cx="470.56" cy="274.55" r="10.08"/>
  <circle class="st23" cx="337.6" cy="289.08" r="10.9"/>
  <circle class="st23" cx="410.53" cy="240.86" r="6.79"/>
  <circle class="st23" cx="497.52" cy="313.18" r="2.48"/>
  <circle class="st23" cx="251.37" cy="318.3" r="3.54"/>
  <circle class="st23" cx="163.67" cy="518.44" r="11.48"/>
  <circle class="st23" cx="174.29" cy="635.57" r="8.7"/>
  <circle class="st23" cx="310.57" cy="545.77" r="3.97"/>
  <circle class="st23" cx="612.22" cy="243.01" r="17.69"/>
  <circle class="st23" cx="165.44" cy="339.3" r="17.69"/>
  <circle class="st23" cx="273.38" cy="574.15" r="10.95"/>
  <circle class="st23" cx="261.18" cy="773.3" r="11.25"/>
  <circle class="st23" cx="789.28" cy="754.18" r="3.54"/>
  <circle class="st23" cx="867.05" cy="549.36" r="11.48"/>
  <circle class="st23" cx="861.93" cy="424.51" r="8.7"/>
  <circle class="st23" cx="716.01" cy="526.04" r="3.97"/>
  <circle class="st23" cx="808.43" cy="630.1" r="17.69"/>
  <circle class="st23" cx="845.93" cy="489.46" r="10.95"/>
  <circle class="st23" cx="859.35" cy="320.08" r="10.61"/>
  <polygon class="st23" points="526.14 399.96 524.14 399.96 524.14 323.24 490.02 289.4 490.02 214.88 505.51 199.38 506.92 200.8 492.02 215.7 492.02 288.57 526.14 322.41 526.14 399.96"/>
  <path class="st23" d="M521.21,206.72c-11.96,0-21.69-9.73-21.69-21.69s9.73-21.69,21.69-21.69,21.69,9.73,21.69,21.69-9.73,21.69-21.69,21.69ZM521.21,165.33c-10.86,0-19.69,8.83-19.69,19.69s8.83,19.69,19.69,19.69,19.69-8.83,19.69-19.69-8.83-19.69-19.69-19.69Z"/>
  <path class="st23" d="M552,286.83c-6.11,0-11.08-4.97-11.08-11.08s4.97-11.08,11.08-11.08,11.08,4.97,11.08,11.08-4.97,11.08-11.08,11.08ZM552,266.66c-5.01,0-9.08,4.08-9.08,9.08s4.08,9.08,9.08,9.08,9.08-4.08,9.08-9.08-4.08-9.08-9.08-9.08Z"/>
  <path class="st23" d="M169.29,404.58c-6.11,0-11.08-4.97-11.08-11.08s4.97-11.08,11.08-11.08,11.08,4.97,11.08,11.08-4.97,11.08-11.08,11.08ZM169.29,384.42c-5.01,0-9.08,4.08-9.08,9.08s4.08,9.08,9.08,9.08,9.08-4.08,9.08-9.08-4.08-9.08-9.08-9.08Z"/>
  <path class="st23" d="M497.52,320.95c-4.29,0-7.78-3.49-7.78-7.78s3.49-7.78,7.78-7.78,7.78,3.49,7.78,7.78-3.49,7.78-7.78,7.78ZM497.52,306.8c-3.51,0-6.37,2.86-6.37,6.37s2.86,6.37,6.37,6.37,6.37-2.86,6.37-6.37-2.86-6.37-6.37-6.37Z"/>
  <path class="st23" d="M410.53,257.75c-9.31,0-16.89-7.58-16.89-16.89s7.58-16.89,16.89-16.89,16.89,7.58,16.89,16.89-7.58,16.89-16.89,16.89ZM410.53,225.97c-8.21,0-14.89,6.68-14.89,14.89s6.68,14.89,14.89,14.89,14.89-6.68,14.89-14.89-6.68-14.89-14.89-14.89Z"/>
  <path class="st23" d="M251.37,329.39c-6.11,0-11.08-4.97-11.08-11.08s4.97-11.08,11.08-11.08,11.08,4.97,11.08,11.08-4.97,11.08-11.08,11.08ZM251.37,309.22c-5.01,0-9.08,4.08-9.08,9.08s4.08,9.08,9.08,9.08,9.08-4.08,9.08-9.08-4.08-9.08-9.08-9.08Z"/>
  <path class="st23" d="M163.67,540.13c-11.96,0-21.69-9.73-21.69-21.69s9.73-21.69,21.69-21.69,21.69,9.73,21.69,21.69-9.73,21.69-21.69,21.69ZM163.67,498.74c-10.86,0-19.69,8.83-19.69,19.69s8.83,19.69,19.69,19.69,19.69-8.83,19.69-19.69-8.83-19.69-19.69-19.69Z"/>
  <path class="st23" d="M174.29,652.25c-9.2,0-16.68-7.48-16.68-16.68s7.48-16.68,16.68-16.68,16.68,7.48,16.68,16.68-7.48,16.68-16.68,16.68ZM174.29,620.9c-8.09,0-14.68,6.58-14.68,14.68s6.58,14.68,14.68,14.68,14.68-6.58,14.68-14.68-6.58-14.68-14.68-14.68Z"/>
  <path class="st23" d="M310.57,556.81c-6.08,0-11.04-4.95-11.04-11.04s4.95-11.04,11.04-11.04,11.04,4.95,11.04,11.04-4.95,11.04-11.04,11.04ZM310.57,536.74c-4.98,0-9.04,4.05-9.04,9.04s4.05,9.04,9.04,9.04,9.04-4.05,9.04-9.04-4.05-9.04-9.04-9.04Z"/>
  <rect class="st23" x="551" y="285.83" width="2" height="114.13"/>
  <path class="st23" d="M735.68,324.37c-5.05-3.45-6.35-10.36-2.91-15.4s10.36-6.35,15.4-2.91c5.05,3.45,6.35,10.36,2.91,15.4-3.45,5.05-10.36,6.35-15.4,2.91ZM747.05,307.72c-4.14-2.82-9.8-1.76-12.62,2.38s-1.76,9.8,2.38,12.62c4.14,2.82,9.8,1.76,12.62-2.38s1.76-9.8-2.38-12.62Z"/>
  <rect class="st23" x="647.01" y="369.68" width="114.13" height="2" transform="translate(.97 743.2) rotate(-55.68)"/>
  <polygon class="st23" points="579.76 399.96 577.76 399.96 577.76 322.31 611.22 289.05 611.22 259.26 613.22 259.26 613.22 289.88 579.76 323.14 579.76 399.96"/>
  <path class="st23" d="M677.22,281.44c-6.46,0-11.71-5.25-11.71-11.71s5.25-11.71,11.71-11.71,11.71,5.25,11.71,11.71-5.25,11.71-11.71,11.71ZM677.22,260.03c-5.35,0-9.71,4.35-9.71,9.71s4.35,9.71,9.71,9.71,9.71-4.35,9.71-9.71-4.35-9.71-9.71-9.71Z"/>
  <polygon class="st23" points="617.62 390.93 615.62 390.93 615.62 329.53 668.68 277.47 670.08 278.9 617.62 330.37 617.62 390.93"/>
  <rect class="st23" x="496.81" y="320.25" width="1.4" height="37.29"/>
  <circle class="st23" cx="346.87" cy="324.21" r="2.48"/>
  <path class="st23" d="M346.87,331.99c-4.29,0-7.78-3.49-7.78-7.78s3.49-7.78,7.78-7.78,7.78,3.49,7.78,7.78-3.49,7.78-7.78,7.78ZM346.87,317.84c-3.51,0-6.37,2.86-6.37,6.37s2.86,6.37,6.37,6.37,6.37-2.86,6.37-6.37-2.86-6.37-6.37-6.37Z"/>
  <rect class="st23" x="346.17" y="331.29" width="1.4" height="37.29"/>
  <rect class="st23" x="469.56" y="283.74" width="2" height="86.22"/>
  <polygon class="st23" points="444.61 399.96 442.61 399.96 442.61 322.56 409.53 288.92 409.53 256.39 411.53 256.39 411.53 288.1 444.61 321.74 444.61 399.96"/>
  <polygon class="st23" points="417.65 399.96 415.65 399.96 415.65 339.58 366.53 290.08 346.87 290.08 346.87 288.08 367.36 288.08 417.65 338.76 417.65 399.96"/>
  <circle class="st23" cx="735.07" cy="245.54" r="6.79"/>
  <path class="st23" d="M747.01,233.6c6.59,6.59,6.59,17.3,0,23.89s-17.3,6.59-23.89,0c-6.59-6.59-6.59-17.3,0-23.89,6.59-6.59,17.3-6.59,23.89,0ZM724.54,256.07c5.81,5.81,15.25,5.81,21.06,0,5.81-5.81,5.81-15.25,0-21.06-5.81-5.81-15.25-5.81-21.06,0-5.81,5.81-5.81,15.25,0,21.06Z"/>
  <polygon class="st23" points="723.38 255.82 724.79 257.23 702.37 279.65 701.96 326.83 646.66 382.14 645.24 380.72 699.97 326 700.38 278.82 723.38 255.82"/>
  <polygon class="st23" points="372.67 379.24 310.89 379.24 257.55 325.89 258.96 324.48 311.72 377.24 372.67 377.24 372.67 379.24"/>
  <polygon class="st23" points="322.68 373.57 245.12 373.57 212.43 340.3 180.74 340.3 180.74 338.3 213.27 338.3 245.96 371.57 322.68 371.57 322.68 373.57"/>
  <rect class="st23" x="178.26" y="391.64" width="116.14" height="2"/>
  <polygon class="st23" points="269.23 548.3 193 548.3 192.71 548.02 177.34 533.05 178.8 531.68 193.81 546.3 268.41 546.3 301.39 513.9 378.94 513.9 378.94 515.9 302.21 515.9 269.23 548.3"/>
  <circle class="st23" cx="259.98" cy="248.3" r="8.93"/>
  <path class="st23" d="M267.47,263.42c-8.34,4.13-18.48.71-22.61-7.63-4.13-8.34-.71-18.48,7.63-22.61,8.34-4.13,18.48-.71,22.61,7.63,4.13,8.34.71,18.48-7.62,22.61ZM266.78,262.03c7.57-3.75,10.67-12.96,6.92-20.53-3.75-7.57-12.96-10.67-20.53-6.92-7.57,3.75-10.67,12.96-6.92,20.53,3.75,7.57,12.96,10.67,20.53,6.92Z"/>
  <polygon class="st23" points="317.25 311.55 290.92 258.43 290.63 258.32 274.87 252.78 274.26 254.21 289.81 259.69 315.58 311.67 304.38 345.85 331.17 399.88 332.56 399.19 306.06 345.73 317.25 311.55"/>
  <rect class="st23" x="321.18" y="544.77" width="53.62" height="2"/>
  <rect class="st23" x="281.83" y="573.15" width="86.6" height="2"/>
  <circle class="st23" cx="184.98" cy="430.47" r="3.97"/>
  <circle class="st23" cx="151.13" cy="462.36" r="10.95"/>
  <path class="st23" d="M184.98,441.51c-6.08,0-11.04-4.95-11.04-11.04s4.95-11.04,11.04-11.04,11.04,4.95,11.04,11.04-4.95,11.04-11.04,11.04ZM184.98,421.44c-4.98,0-9.04,4.05-9.04,9.04s4.05,9.04,9.04,9.04,9.04-4.05,9.04-9.04-4.05-9.04-9.04-9.04Z"/>
  <rect class="st23" x="195.59" y="429.47" width="53.62" height="2"/>
  <rect class="st23" x="159.57" y="461.36" width="86.6" height="2"/>
  <circle class="st23" cx="295.37" cy="635.18" r="3.97"/>
  <circle class="st23" cx="258.17" cy="663.56" r="10.95"/>
  <path class="st23" d="M295.37,646.21c-6.08,0-11.04-4.95-11.04-11.04s4.95-11.04,11.04-11.04,11.04,4.95,11.04,11.04-4.95,11.04-11.04,11.04ZM295.37,626.14c-4.98,0-9.04,4.05-9.04,9.04s4.05,9.04,9.04,9.04,9.04-4.05,9.04-9.04-4.05-9.04-9.04-9.04Z"/>
  <rect class="st23" x="305.98" y="634.18" width="53.62" height="2"/>
  <rect class="st23" x="266.62" y="662.56" width="86.6" height="2"/>
  <circle class="st23" cx="729.48" cy="639.14" r="3.97"/>
  <circle class="st23" cx="767.4" cy="672.94" r="10.95"/>
  <path class="st23" d="M718.44,639.14c0-6.08,4.95-11.04,11.04-11.04,6.08,0,11.04,4.95,11.04,11.04,0,6.08-4.95,11.04-11.04,11.04-6.09,0-11.04-4.95-11.04-11.04ZM720.44,639.14c0,4.98,4.05,9.04,9.04,9.04,4.98,0,9.04-4.05,9.04-9.04,0-4.98-4.05-9.04-9.04-9.04-4.98,0-9.04,4.05-9.04,9.04Z"/>
  <rect class="st23" x="665.24" y="638.14" width="53.62" height="2"/>
  <rect class="st23" x="672.35" y="671.94" width="86.6" height="2"/>
  <polygon class="st23" points="222.69 635.23 189.97 635.23 189.97 633.23 221.86 633.23 255.13 600.16 357.48 600.16 357.48 602.16 255.95 602.16 222.69 635.23"/>
  <polygon class="st23" points="262.06 764.28 259.94 764.28 259.94 740.33 313.45 687.22 379.15 687.22 379.15 689.34 314.33 689.34 262.06 741.21 262.06 764.28"/>
  <path class="st23" d="M776.4,584.68c-6.11,0-11.08-4.97-11.08-11.08s4.97-11.08,11.08-11.08,11.08,4.97,11.08,11.08-4.97,11.08-11.08,11.08ZM776.4,564.51c-5.01,0-9.08,4.08-9.08,9.08s4.08,9.08,9.08,9.08,9.08-4.08,9.08-9.08-4.08-9.08-9.08-9.08Z"/>
  <path class="st23" d="M789.28,765.26c-6.11,0-11.08-4.97-11.08-11.08s4.97-11.08,11.08-11.08,11.08,4.97,11.08,11.08-4.97,11.08-11.08,11.08ZM789.28,745.1c-5.01,0-9.08,4.08-9.08,9.08s4.08,9.08,9.08,9.08,9.08-4.08,9.08-9.08-4.08-9.08-9.08-9.08Z"/>
  <path class="st23" d="M867.05,571.05c-11.96,0-21.69-9.73-21.69-21.69s9.73-21.69,21.69-21.69,21.69,9.73,21.69,21.69-9.73,21.69-21.69,21.69ZM867.05,529.66c-10.86,0-19.69,8.83-19.69,19.69s8.83,19.69,19.69,19.69,19.69-8.83,19.69-19.69-8.83-19.69-19.69-19.69Z"/>
  <path class="st23" d="M861.93,441.19c-9.2,0-16.68-7.48-16.68-16.68s7.48-16.68,16.68-16.68,16.68,7.48,16.68,16.68-7.48,16.68-16.68,16.68ZM861.93,409.83c-8.09,0-14.68,6.58-14.68,14.68s6.58,14.68,14.68,14.68,14.68-6.58,14.68-14.68-6.58-14.68-14.68-14.68Z"/>
  <path class="st23" d="M716.01,537.07c-6.08,0-11.04-4.95-11.04-11.04s4.95-11.04,11.04-11.04,11.04,4.95,11.04,11.04-4.95,11.04-11.04,11.04ZM716.01,517c-4.98,0-9.04,4.05-9.04,9.04s4.05,9.04,9.04,9.04,9.04-4.05,9.04-9.04-4.05-9.04-9.04-9.04Z"/>
  <polygon class="st23" points="781.69 748.01 728.93 695.25 667.98 695.25 667.98 693.25 729.76 693.25 783.1 746.59 781.69 748.01"/>
  <circle class="st23" cx="822.38" cy="342.55" r="3.54"/>
  <path class="st23" d="M831.82,348.35c-3.2,5.21-10.04,6.84-15.25,3.64-5.21-3.2-6.84-10.04-3.64-15.25,3.2-5.21,10.04-6.84,15.25-3.64,5.21,3.2,6.84,10.04,3.64,15.25ZM814.64,337.8c-2.62,4.27-1.28,9.87,2.99,12.49,4.27,2.62,9.87,1.28,12.49-2.99,2.62-4.27,1.28-9.87-2.99-12.5-4.27-2.62-9.87-1.28-12.5,2.99Z"/>
  <polygon class="st23" points="813.14 345.79 740.58 363.13 708.68 415.07 706.97 414.03 739.31 361.38 812.68 343.84 813.14 345.79"/>
  <polygon class="st23" points="793.13 631.11 760.6 631.11 727.91 597.84 651.19 597.84 651.19 595.84 728.75 595.84 761.44 629.11 793.13 629.11 793.13 631.11"/>
  <rect class="st23" x="651.29" y="573.45" width="116.14" height="2"/>
  <polygon class="st23" points="729.32 553.9 651.78 553.9 651.78 551.9 728.51 551.9 761.48 519.49 837.71 519.49 838.01 519.78 853.25 534.63 851.86 536.06 836.9 521.49 762.3 521.49 729.32 553.9"/>
  <rect class="st23" x="651.78" y="525.04" width="53.62" height="2"/>
  <rect class="st23" x="750.88" y="488.46" width="86.6" height="2"/>
  <polygon class="st23" points="781.1 459.92 702.88 459.92 702.88 457.92 780.27 457.92 813.53 424.85 846.25 424.85 846.25 426.85 814.36 426.85 781.1 459.92"/>
  <polygon class="st23" points="810.04 401.28 748.07 401.28 748.07 399.28 809.21 399.28 858.52 350.35 858.52 328.59 860.52 328.59 860.52 351.18 810.04 401.28"/>
  <path class="st23" d="M799.16,510.73c-15.14-2.24-121.36-18.14-124.63-18.54-3.27-.38-5.32-.49-5.16-4.13.15-3.22.93-20.79,1.31-29.54.05-1.21,1.05-2.16,2.27-2.16h135.24c1.45,2.2,3.12,3.87,5,4.8v38.62c0,3.46,1.24,13.21-14.03,10.94Z"/>
  <path class="st5" d="M763.62,490.57c-41.02-6.12-66.9-9.98-79.12-11.78.11-2.44.23-5.09.34-7.73h113.65v24.71c-6.62-.98-19.67-2.93-34.87-5.2Z"/>
  <path class="st23" d="M797.14,403.62c-.31-4.18-.62-7.84-5.73-10.84-104.64-61.31-245.67-61.31-279.01-61.31s-174.37,0-279.01,61.31c-5.11,3-5.42,6.66-5.73,10.84-.95,12.64-2.6,30.62-6.74,43.28h128.14c.87,0,1.58-.71,1.57-1.58,0-.52,0-1.04-.01-1.49,0-.85-.69-1.54-1.55-1.55l-1.52-.02c-.92-.01-1.66-.76-1.65-1.68,0-.02,0-.04,0-.07.02-3.01,1.44-5.83,3.81-7.7,29.89-23.54,131.07-21.69,162.69-21.41,31.62-.28,132.81-2.12,162.69,21.41,2.37,1.86,3.78,4.68,3.81,7.7,0,.02,0,.04,0,.07,0,.92-.73,1.67-1.65,1.68l-1.52.02c-.85.01-1.54.7-1.55,1.55,0,.46,0,.98-.01,1.49,0,.87.7,1.58,1.57,1.58h128.14c-4.15-12.66-5.8-30.64-6.74-43.28Z"/>
  <path class="st2" d="M286.96,386.67l33.92,42.27h-77.77c1.09-7.68,1.81-15.43,2.35-22.37,11.48-6.55,25.23-13.36,41.5-19.89Z"/>
  <path class="st7" d="M781.69,428.94h-77.95l33.95-42.31c16.33,6.55,30.12,13.38,41.65,19.94.54,6.96,1.26,14.7,2.35,22.37Z"/>
  <path class="st12" d="M688.92,370.42l-28.51,35.54c-26.82-8.59-67.87-12.67-125.72-12.67-7.35,0-13.82.07-18.98.11l-3.32.03-3.32-.03c-5.16-.05-11.61-.11-18.98-.11-57.85,0-98.9,4.08-125.72,12.67l-28.51-35.54c45.17-12.22,103.17-20.99,176.53-20.99s131.35,8.77,176.53,20.99Z"/>
  <path class="st23" d="M225.63,510.73c15.14-2.24,121.36-18.14,124.63-18.54,3.27-.38,5.32-.49,5.16-4.13-.15-3.22-.93-20.79-1.31-29.54-.05-1.21-1.05-2.16-2.27-2.16h-135.24c-1.45,2.2-3.12,3.87-5,4.8v38.62c0,3.46-1.24,13.21,14.03,10.94Z"/>
  <path class="st21" d="M226.3,471.06h113.64c.12,2.63.23,5.29.34,7.73-12.28,1.81-38.2,5.67-79.28,11.81-15.13,2.26-28.12,4.2-34.71,5.18v-24.71Z"/>
  <polygon class="st23" points="641.68 486.44 641.68 433.88 602.32 433.88 586.18 471.06 641.68 486.44"/>
  <polygon class="st23" points="610.67 435.32 610.67 410.82 634.6 410.82 634.6 438.78 610.67 435.32"/>
  <path class="st23" d="M683.8,643.27l-46.94-174.81h-248.91l-46.94,174.81c-2.54,9.46-3.83,19.21-3.83,29v66.52h350.45v-66.52c0-9.79-1.29-19.54-3.83-29Z"/>
  <path class="st15" d="M355.14,720.83v-48.55c0-8.22,1.08-16.41,3.21-24.34l43.37-161.51h221.36l43.37,161.5c2.13,7.94,3.21,16.13,3.21,24.35v48.55h-314.52Z"/>
  <path class="st23" d="M512.41,491.82c-49.11,0-89.37,38.02-92.9,86.22-.05.66-.09,1.33-.12,2-.09,1.62-.13,3.24-.13,4.88,0,.63.01,1.25.03,1.88,0,.67.02,1.34.06,2.01.23,5.79.99,11.44,2.24,16.92.18.83.39,1.65.61,2.47.71,2.85,1.58,5.65,2.58,8.39.49,1.37,1.01,2.71,1.56,4.05.41.98.84,1.94,1.28,2.91,1.22,2.69,2.58,5.3,4.03,7.85.78,1.35,1.59,2.68,2.44,3.99.66,1.02,1.34,2.02,2.04,3.01,7.89,11.23,18.2,20.64,30.18,27.48.8.47,1.61.91,2.45,1.34.22.12.45.24.68.36.66.35,1.33.69,2.01,1.02,12.35,6.08,26.26,9.48,40.96,9.48,8.31,0,16.36-1.09,24.03-3.13.79-.21,1.58-.43,2.36-.67,1.94-.56,3.85-1.2,5.73-1.89,1.05-.39,2.08-.78,3.09-1.2.77-.32,1.53-.64,2.28-.98,1.48-.65,2.95-1.34,4.39-2.07,1.33-.67,2.64-1.37,3.93-2.1,1.16-.65,2.3-1.34,3.41-2.02,2.57-1.6,5.05-3.34,7.43-5.16.67-.53,1.34-1.05,2-1.59,3.21-2.6,6.24-5.42,9.07-8.43.52-.53,1.02-1.07,1.5-1.62,4.75-5.27,8.91-11.09,12.36-17.35.5-.93,1.01-1.86,1.47-2.8,2.38-4.69,4.38-9.62,5.96-14.73.31-1.01.6-2.04.88-3.07,2.1-7.75,3.22-15.92,3.22-24.35,0-51.41-41.7-93.1-93.11-93.1ZM593.04,592.68c-.62,6.66-2.06,13.08-4.2,19.17-.39,1.11-.8,2.21-1.24,3.29-2.84,7.07-6.65,13.65-11.27,19.57-.46.6-.93,1.19-1.42,1.77-2.64,3.21-5.53,6.21-8.64,8.98l-.08.09c-2.6,2.31-5.35,4.45-8.24,6.4-.94.65-1.89,1.27-2.86,1.86-.28.18-.56.35-.84.52-1.11.69-2.25,1.34-3.4,1.95-2.1,1.14-4.26,2.18-6.47,3.13-.84.36-1.68.71-2.53,1.03-9.13,3.58-19.07,5.54-29.46,5.54-14.97,0-29.01-4.07-41.06-11.17-.68-.4-1.35-.8-2.01-1.22-.14-.08-.27-.17-.4-.25-.82-.53-1.62-1.05-2.42-1.61-14.56-10.02-25.68-24.68-31.24-41.86-.12-.36-.23-.71-.34-1.07-.25-.83-.49-1.65-.72-2.5-1.28-4.7-2.15-9.59-2.56-14.61-.19-2.22-.28-4.47-.28-6.75,0-1.5.04-2.99.13-4.47.03-.67.07-1.33.13-1.99,3.29-41.73,38.22-74.56,80.77-74.56,44.75,0,81.02,36.27,81.02,81.02,0,1.16-.02,2.31-.07,3.46-.06,1.44-.16,2.87-.3,4.28Z"/>
  <path class="st18" d="M590.5,669.63l-40.6.58c1.48-.65,2.95-1.34,4.39-2.07l33.37-.47c-1.87-5.03-4.39-11.34-7.53-18.83.52-.53,1.02-1.07,1.5-1.62,3.92,9.35,6.88,16.82,8.87,22.41Z"/>
  <path class="st19" d="M593.42,584.94c0,44.76-36.27,81.04-81.02,81.04s-81.04-36.27-81.04-81.04,36.3-81.02,81.04-81.02,81.02,36.27,81.02,81.02Z"/>
  <g class="st1">
    <path class="st8" d="M512.4,649.33c-35.54,0-64.39-28.82-64.39-64.39s28.85-64.38,64.39-64.38,64.38,28.82,64.38,64.38"/>
    <g>
      <circle class="st23" cx="512.4" cy="649.33" r="11.35"/>
      <path class="st3" d="M517.52,649.71c-.08.89-.34,1.78-.79,2.67s-1.11,1.59-1.99,2.13c-.88.54-1.85.76-2.93.66-1.47-.13-2.63-.79-3.48-2-.85-1.2-1.21-2.58-1.08-4.12.14-1.61.75-2.97,1.84-4.08,1.09-1.11,2.36-1.6,3.81-1.47.94.08,1.81.43,2.61,1.03.8.6,1.35,1.4,1.66,2.38.31.98.42,1.92.35,2.81ZM514.73,649.42c.14-1.6.05-2.86-.26-3.78-.31-.92-.83-1.41-1.54-1.48s-1.32.36-1.83,1.26c-.52.9-.85,2.22-1.01,3.97-.14,1.61-.03,2.85.32,3.71s.88,1.32,1.56,1.38c.77.07,1.38-.32,1.84-1.16.46-.84.76-2.14.92-3.9Z"/>
    </g>
    <g>
      <circle class="st23" cx="480.19" cy="640.71" r="11.35"/>
      <path class="st3" d="M475.9,643.79l5.07-6.03c.7-.84,1.09-1.42,1.15-1.77.06-.34-.07-.66-.41-.96-.25-.22-.39-.37-.42-.46-.03-.09-.01-.18.06-.27.12-.14.27-.14.44,0,.04.03.08.07.13.12.78.76,1.37,1.3,1.76,1.63.41.35,1.02.82,1.83,1.43.29.22.48.37.57.45.21.17.25.33.13.48-.08.09-.16.12-.25.09-.09-.03-.28-.14-.56-.34-.35-.25-.64-.37-.89-.36s-.45.07-.6.19-.46.43-.93.95l-3.02,3.59c-.51.61-.84,1.07-.97,1.36-.13.3-.16.56-.09.79.07.23.26.51.57.83.24.26.38.43.42.5.04.08.02.16-.05.24-.08.1-.17.13-.25.1-.09-.03-.25-.13-.48-.3-1.04-.74-2.09-1.24-3.14-1.5-.13-.03-.22-.07-.28-.12-.14-.12-.07-.33.2-.65Z"/>
    </g>
    <g>
      <circle class="st23" cx="456.63" cy="617.15" r="11.35"/>
      <path class="st3" d="M461.03,611.81l2.47,6.76c.12.33.18.53.19.62s-.03.15-.12.18c-.11.04-.27-.02-.47-.17-.64-.46-1.65-1.06-3.04-1.8-1.39-.73-2.63-1.16-3.72-1.29-1.09-.13-2.1-.01-3.05.33-.54.2-.93.46-1.16.78-.23.32-.28.67-.14,1.04.16.44.48.8.95,1.09s1.06.44,1.75.45,1.34-.09,1.94-.31c.34-.12.57-.27.7-.44.13-.17.15-.37.07-.58-.1-.27-.35-.48-.74-.62-.38-.13-.7-.21-.95-.22-.24-.02-.38-.09-.43-.22-.06-.18-.02-.3.15-.35.25-.09.79-.01,1.62.24s1.37.75,1.64,1.5c.22.6.2,1.14-.07,1.63-.26.49-.63.83-1.12,1.01-1.13.41-2.39.19-3.8-.66-1.4-.85-2.31-1.85-2.73-2.99-.33-.91-.33-1.75.02-2.52s.92-1.3,1.74-1.6c.42-.15.89-.22,1.4-.2.52.02,1,.11,1.44.27.44.16,1.15.56,2.12,1.19.97.63,1.87,1.25,2.71,1.86l-.71-1.93c-.36-.99-.65-1.61-.88-1.86-.22-.25-.58-.44-1.09-.59-.38-.1-.59-.21-.63-.33-.06-.18,0-.3.18-.36.08-.03.2-.04.35-.03.99.09,2.12.13,3.38.13Z"/>
    </g>
    <g>
      <circle class="st23" cx="448" cy="584.95" r="11.35"/>
      <path class="st3" d="M447.45,583.1c.18-1.03.58-1.73,1.2-2.11s1.23-.52,1.82-.41c.7.12,1.32.49,1.87,1.09.55.61.94,1.33,1.16,2.16.22.83.26,1.71.09,2.64-.18,1-.54,1.81-1.1,2.44s-1.16.88-1.81.76c-.42-.07-.73-.26-.93-.56-.2-.3-.27-.63-.21-.99.05-.31.22-.57.49-.78.27-.21.57-.29.9-.23.18.03.38.13.62.29.18.12.31.18.4.2.22.04.42-.05.6-.27.18-.22.3-.48.35-.77.13-.76-.36-1.53-1.49-2.3-1.13-.77-1.95-1.2-2.47-1.29-.28-.05-.52,0-.72.13-.2.13-.32.3-.35.5-.04.25.12.73.49,1.44.26.5.38.79.36.89-.04.2-.14.28-.32.25-.12-.02-.23-.12-.33-.3-.74-1.37-1.36-2.27-1.86-2.71-.5-.44-1-.7-1.49-.79-.46-.08-.84-.03-1.15.15-.31.18-.49.44-.55.79-.09.54.06,1.06.45,1.57.4.51.91.82,1.53.93.22.04.41.02.57-.07.16-.09.26-.2.28-.34.05-.3-.16-.66-.64-1.06-.11-.09-.15-.2-.13-.32.03-.19.14-.26.34-.23s.52.32.97.87c.44.54.61,1.13.5,1.76-.08.43-.29.77-.65,1.02s-.77.33-1.23.25c-.95-.17-1.67-.79-2.16-1.88-.49-1.08-.63-2.21-.43-3.39.17-.97.51-1.66,1.01-2.07.5-.4,1.01-.56,1.54-.47.31.06.62.22.92.49.3.27.52.54.67.81.15.27.45.89.89,1.88Z"/>
    </g>
    <g>
      <circle class="st23" cx="456.62" cy="552.74" r="11.35"/>
      <path class="st3" d="M457.41,554.03c-1.16,1.37-2.21,2.7-3.15,3.99-.32-.36-.5-.61-.56-.75-.06-.14-.16-.72-.33-1.73s-.29-1.97-.39-2.87c-.09-.91-.17-1.8-.23-2.67-.06-.88-.07-1.41-.02-1.61.04-.2.12-.36.23-.49.13-.16.24-.25.33-.27.09-.02.19.03.31.13l.4.32,4.37,3.67c.9-1.08.96-2,.17-2.78-.19-.18-.22-.33-.11-.47s.28-.13.49.04c.06.05.14.13.25.24.39.39.8.76,1.22,1.11.25.21.49.4.71.57.39.28.63.46.71.53.23.19.28.36.15.51-.1.12-.32.09-.65-.08-.42-.22-.78-.31-1.09-.27s-.66.28-1.04.73c-.06.07-.15.19-.27.35l1.37,1.15c.58.49,1.01.75,1.29.78.28.03.6-.16.96-.57.17-.19.33-.23.47-.11.15.13.15.29-.02.49-.03.04-.19.21-.49.53-.71.77-1.24,1.36-1.57,1.75-.25.3-.56.71-.92,1.22-.07.11-.12.18-.16.22-.21.26-.36.4-.44.45-.08.04-.17.02-.26-.05-.14-.12-.09-.37.17-.74.2-.29.3-.53.31-.73,0-.2-.08-.41-.27-.65s-.85-.88-1.97-1.93ZM454.25,556.81l2.61-3.23c-.14-.13-.88-.77-2.24-1.91-.58-.49-.96-.8-1.14-.93l.24,2.37c.14,1.5.32,2.74.53,3.7Z"/>
    </g>
    <g>
      <circle class="st23" cx="480.18" cy="529.18" r="11.35"/>
      <path class="st3" d="M477.57,526.92l.51,2.65c.31-.52.66-.96,1.07-1.31s.86-.62,1.36-.8c.95-.35,1.82-.33,2.62.05s1.36,1.01,1.68,1.88c.4,1.1.28,2.25-.36,3.46-.64,1.21-1.75,2.1-3.31,2.67-1.03.38-1.88.46-2.57.25-.69-.21-1.13-.59-1.34-1.16-.14-.38-.12-.73.06-1.06.18-.33.44-.56.8-.68s.68-.13.97,0c.29.14.48.34.58.6.06.15.09.36.1.64,0,.23.03.39.07.49.06.15.18.26.39.34s.47.05.8-.07c.88-.32,1.36-.96,1.45-1.93.09-.97-.05-1.95-.41-2.94-.23-.64-.55-1.06-.95-1.27-.4-.21-.78-.24-1.15-.11-.46.17-.84.5-1.12,1.01-.29.51-.41,1.02-.36,1.53.03.35-.02.55-.17.61-.19.07-.32,0-.4-.21-.05-.14-.28-1.21-.67-3.19-.4-1.99-.61-3.16-.63-3.53.73-.07,1.55-.27,2.46-.6,1.16-.42,1.86-1.08,2.11-1.98.08-.29.17-.45.27-.49.21-.08.35-.02.41.16.22.61.07,1.42-.46,2.42-.53,1-1.51,1.77-2.93,2.29-.2.07-.49.17-.87.29Z"/>
    </g>
    <g>
      <circle class="st23" cx="512.39" cy="520.56" r="11.35"/>
      <path class="st3" d="M510.45,519.15c.42-.17.86-.27,1.29-.31.44-.04.88-.02,1.34.06,1.05.18,1.9.66,2.55,1.44.65.78.89,1.71.69,2.81s-.79,1.98-1.76,2.55c-.98.57-2.12.74-3.43.51-1.51-.27-2.59-.93-3.25-2-.66-1.07-.85-2.35-.59-3.83.32-1.83,1.16-3.28,2.51-4.35,1.35-1.07,2.97-1.44,4.86-1.11,1.03.18,1.79.51,2.27.98s.67.99.57,1.55c-.06.36-.26.64-.58.86-.32.22-.67.29-1.03.23-.38-.07-.68-.25-.87-.54-.2-.29-.26-.66-.19-1.09l.11-.58c.07-.42-.15-.68-.67-.77-.74-.13-1.46.1-2.17.69-.7.59-1.26,1.57-1.68,2.92ZM513.53,522.84c.18-.99.15-1.76-.06-2.31-.21-.55-.62-.87-1.23-.98-.64-.11-1.18.05-1.62.5-.44.45-.74,1.1-.89,1.96-.17.97-.12,1.76.14,2.39.27.63.69,1,1.27,1.1s1.07-.09,1.5-.58c.43-.49.72-1.18.88-2.09Z"/>
    </g>
    <g>
      <circle class="st23" cx="544.59" cy="529.17" r="11.35"/>
      <path class="st3" d="M548.97,528.56l-2.8-2.36c-.74-.62-1.25-.98-1.53-1.07-.28-.09-.69-.06-1.24.08-.43.11-.68.13-.76.06-.15-.13-.16-.27-.02-.43s.65-.59,1.53-1.26c.88-.68,1.44-1.06,1.68-1.14.24-.08.4-.09.49,0,.1.08.13.24.08.46-.03.15,0,.3.08.46.09.16.45.52,1.09,1.07.64.55.99.86,1.07.92l3.18,2.67c-.27.18-.62.36-1.05.54-1.79.73-3.17,1.42-4.12,2.09s-1.93,1.55-2.95,2.65c-.66.72-1.2,1.16-1.61,1.3-.41.14-.82.04-1.24-.31-.3-.26-.48-.57-.52-.93s.06-.7.31-.99c.24-.28.64-.59,1.21-.93s1.55-.78,2.95-1.31l4.17-1.55Z"/>
    </g>
    <g>
      <circle class="st23" cx="568.16" cy="552.73" r="11.35"/>
      <path class="st3" d="M569.56,554.25c-.04.84-.23,1.54-.58,2.08-.35.54-.85.93-1.5,1.17-.95.35-1.91.24-2.88-.33-.97-.57-1.68-1.44-2.11-2.63-.41-1.12-.48-2.13-.21-3.05.27-.91.74-1.49,1.42-1.74.47-.17,1.02-.16,1.64.03.62.19,1.25.61,1.88,1.26.08-.76.28-1.38.6-1.87.32-.48.76-.83,1.33-1.04.96-.35,1.87-.26,2.73.27.86.53,1.5,1.35,1.9,2.46.38,1.05.46,1.97.24,2.77-.22.79-.68,1.32-1.38,1.57-.44.16-.89.17-1.34.03-.46-.14-1.04-.47-1.76-.98ZM567.17,551.84c-.5-.31-.98-.5-1.45-.57s-.92-.03-1.37.13c-.59.21-.99.6-1.21,1.16-.22.56-.21,1.17.04,1.83.27.74.68,1.23,1.22,1.47.54.24,1.07.26,1.59.08.37-.14.67-.42.88-.84.22-.42.32-1.51.3-3.26ZM569.65,553.39c.34.25.73.41,1.16.5s.84.06,1.24-.08c.43-.16.79-.49,1.07-1,.28-.51.3-1.1.05-1.79-.23-.63-.6-1.07-1.1-1.32-.5-.24-.96-.29-1.38-.14-.27.1-.52.32-.75.67-.22.35-.33,1.09-.3,2.22.02.48.02.79.01.93Z"/>
    </g>
    <g>
      <circle class="st23" cx="576.78" cy="584.94" r="11.35"/>
      <path class="st3" d="M576.79,587.33c-.38-.24-.72-.53-1.02-.85-.3-.32-.55-.69-.76-1.1-.49-.95-.62-1.93-.39-2.92.23-.99.83-1.74,1.83-2.24s2.04-.55,3.09-.11c1.05.44,1.88,1.25,2.48,2.43.69,1.36.81,2.63.35,3.8s-1.36,2.1-2.7,2.78c-1.66.85-3.33,1.05-4.99.61-1.67-.44-2.94-1.51-3.81-3.22-.5-.97-.69-1.79-.59-2.44.1-.65.4-1.11.91-1.36.32-.16.66-.18,1.03-.05.37.13.64.36.81.69.15.29.18.61.11.96s-.34.64-.78.86l-.52.26c-.39.2-.46.54-.22,1.01.36.7.99,1.14,1.89,1.31.9.17,2,.04,3.3-.41ZM577.89,582.65c-.89.45-1.49.93-1.8,1.43s-.32,1.02-.04,1.57.7.85,1.3.98c.6.13,1.32-.02,2.17-.46s1.49-.97,1.83-1.56c.34-.59.38-1.16.11-1.69s-.71-.8-1.36-.84c-.64-.05-1.38.14-2.2.56Z"/>
    </g>
  </g>
  <polygon class="st23" points="383.11 486.44 383.11 433.88 422.48 433.88 438.62 471.06 383.11 486.44"/>
  <polygon class="st23" points="414.12 435.32 414.12 410.82 390.2 410.82 390.2 438.78 414.12 435.32"/>
  <path class="st10" d="M553.65,584.94c0,22.8-18.47,41.27-41.25,41.27s-41.27-18.47-41.27-41.27,18.49-41.25,41.27-41.25,41.25,18.47,41.25,41.25Z"/>
  <path class="st23" d="M512.4,537.2c-26.38,0-47.75,21.38-47.75,47.74s21.38,47.75,47.75,47.75,47.74-21.38,47.74-47.75-21.36-47.74-47.74-47.74ZM512.4,626.21c-22.78,0-41.27-18.47-41.27-41.27s18.49-41.25,41.27-41.25,41.25,18.47,41.25,41.25-18.47,41.27-41.25,41.27Z"/>
  <g>
    <path class="st23" d="M337.17,746.87h45.8c10.95,0,20.62,2.09,29.02,6.27,8.4,4.18,14.93,10.06,19.59,17.65,4.66,7.59,6.99,16.42,6.99,26.5s-2.33,18.92-6.99,26.5c-4.66,7.59-11.19,13.47-19.59,17.64-8.4,4.18-18.08,6.27-29.02,6.27h-45.8v-100.83ZM381.82,828.54c10.08,0,18.12-2.81,24.13-8.43,6-5.62,9-13.23,9-22.83s-3-17.21-9-22.83c-6-5.62-14.04-8.43-24.13-8.43h-21.32v62.51h21.32Z"/>
    <path class="st23" d="M456.15,746.87h23.33v100.83h-23.33v-100.83Z"/>
    <path class="st23" d="M569.8,826.09h-46.81l-8.93,21.61h-23.91l44.94-100.83h23.05l45.09,100.83h-24.49l-8.93-21.61ZM562.45,808.38l-15.99-38.6-15.99,38.6h31.98Z"/>
    <path class="st23" d="M613.73,746.87h23.33v81.82h50.56v19.01h-73.89v-100.83Z"/>
  </g>
  <path class="st23" d="M1229.65,386.93v15.18h25.76v65.32h18.63v-65.32h25.76v-15.18h-70.15Z"/>
  <path class="st23" d="M1060.83,516.93v80.5h18.63v-80.5h-18.63Z"/>
  <path class="st23" d="M1153.98,516.93v48.87l-40.02-48.87h-15.41v80.5h18.4v-48.88l40.14,48.88h15.29v-80.5h-18.4Z"/>
  <path class="st23" d="M1246.9,516.93v48.87l-40.02-48.87h-15.41v80.5h18.4v-48.88l40.14,48.88h15.29v-80.5h-18.4Z"/>
  <path class="st23" d="M1361.67,535.85c-3.83-6.33-9.08-11.29-15.75-14.9-6.67-3.6-14.19-5.4-22.54-5.4s-15.89,1.8-22.6,5.4c-6.71,3.61-11.96,8.57-15.76,14.9-3.79,6.32-5.69,13.43-5.69,21.33s1.9,15.01,5.69,21.33c3.8,6.33,9.05,11.29,15.76,14.89,6.71,3.61,14.24,5.41,22.6,5.41s15.87-1.8,22.54-5.41c6.67-3.6,11.92-8.56,15.75-14.89,3.83-6.32,5.75-13.43,5.75-21.33s-1.92-15.01-5.75-21.33ZM1345.28,570.52c-2.18,3.91-5.19,6.96-9.02,9.14-3.84,2.19-8.13,3.28-12.88,3.28s-9.05-1.09-12.88-3.28c-3.84-2.18-6.85-5.23-9.03-9.14-2.19-3.91-3.28-8.36-3.28-13.34s1.09-9.43,3.28-13.34c2.18-3.91,5.19-6.96,9.03-9.14,3.83-2.19,8.12-3.28,12.88-3.28s9.04,1.09,12.88,3.28c3.83,2.18,6.84,5.23,9.02,9.14,2.19,3.91,3.28,8.36,3.28,13.34s-1.09,9.43-3.28,13.34Z"/>
  <path class="st23" d="M1437.69,516.93l-24.84,57.5-24.5-57.5h-20.12l34.73,80.5h18.4l34.84-80.5h-18.51Z"/>
  <path class="st23" d="M1535.21,516.93v15.18h25.76v65.32h18.63v-65.32h25.76v-15.18h-70.15Z"/>
  <path class="st23" d="M1615.36,516.93v80.5h18.63v-80.5h-18.63Z"/>
  <path class="st23" d="M1730.36,535.85c-3.83-6.33-9.08-11.29-15.75-14.9-6.67-3.6-14.19-5.4-22.54-5.4s-15.89,1.8-22.6,5.4c-6.71,3.61-11.96,8.57-15.76,14.9-3.79,6.32-5.69,13.43-5.69,21.33s1.9,15.01,5.69,21.33c3.8,6.33,9.05,11.29,15.76,14.89,6.71,3.61,14.24,5.41,22.6,5.41s15.87-1.8,22.54-5.41c6.67-3.6,11.92-8.56,15.75-14.89,3.83-6.32,5.75-13.43,5.75-21.33s-1.92-15.01-5.75-21.33ZM1713.97,570.52c-2.18,3.91-5.19,6.96-9.02,9.14-3.84,2.19-8.13,3.28-12.88,3.28s-9.05-1.09-12.88-3.28c-3.84-2.18-6.85-5.23-9.03-9.14-2.19-3.91-3.28-8.36-3.28-13.34s1.09-9.43,3.28-13.34c2.18-3.91,5.19-6.96,9.03-9.14,3.83-2.19,8.12-3.28,12.88-3.28s9.04,1.09,12.88,3.28c3.83,2.18,6.84,5.23,9.02,9.14,2.19,3.91,3.28,8.36,3.28,13.34s-1.09,9.43-3.28,13.34Z"/>
  <path class="st23" d="M1805.57,516.93v48.87l-40.02-48.87h-15.41v80.5h18.4v-48.88l40.14,48.88h15.29v-80.5h-18.4Z"/>
  <path class="st23" d="M1204.35,646.93v48.87l-40.02-48.87h-15.41v80.5h18.4v-48.88l40.14,48.88h15.29v-80.5h-18.4Z"/>
  <path class="st23" d="M1457.47,646.93v80.5h18.63v-80.5h-18.63Z"/>
  <path class="st23" d="M1546.36,712.25v-65.32h-18.63v80.5h59v-15.18h-40.37Z"/>
  <path class="st23" d="M1755.89,692.87c-2.61-3.41-6.21-5.84-10.81-7.3,3.37-1.77,6-4.18,7.88-7.25,1.88-3.06,2.81-6.55,2.81-10.46,0-6.44-2.62-11.54-7.87-15.3-5.25-3.75-12.79-5.63-22.6-5.63h-39.33v80.5h41.63c10.5,0,18.5-1.9,23.98-5.69,5.48-3.8,8.22-9.22,8.22-16.28,0-4.98-1.3-9.18-3.91-12.59ZM1704.48,660.96h18.52c4.6,0,8.09.79,10.47,2.36,2.37,1.57,3.56,3.93,3.56,7.07s-1.19,5.52-3.56,7.13c-2.38,1.61-5.87,2.41-10.47,2.41h-18.52v-18.97ZM1737.32,710.98c-2.49,1.61-6.19,2.42-11.1,2.42h-21.74v-19.9h21.74c9.89,0,14.84,3.34,14.84,10.01,0,3.37-1.25,5.86-3.74,7.47Z"/>
  <g>
    <path class="st23" d="M1136.21,406.02c-3.72-6.06-8.93-10.75-15.64-14.09-6.71-3.33-14.43-5-23.17-5h-36.57v15.29h35.65c8.05,0,14.47,2.25,19.26,6.73,4.79,4.49,7.19,10.56,7.19,18.23s-2.4,13.74-7.19,18.23c-4.79,4.48-11.21,6.72-19.26,6.72h-17.02v-32.73h-18.63v48.03h36.57c8.74,0,16.46-1.67,23.17-5,6.71-3.34,11.92-8.03,15.64-14.09,3.72-6.06,5.58-13.11,5.58-21.16s-1.86-15.1-5.58-21.16Z"/>
    <circle class="st19" cx="1100.02" cy="427.18" r="8.43"/>
  </g>
  <g>
    <path class="st23" d="M1317.22,666.02c-3.72-6.06-8.93-10.75-15.64-14.09-6.71-3.33-14.43-5-23.17-5h-36.57v15.29h35.65c8.05,0,14.47,2.25,19.26,6.73,4.79,4.49,7.19,10.56,7.19,18.23s-2.4,13.74-7.19,18.23c-4.79,4.48-11.21,6.72-19.26,6.72h-17.02v-32.73h-18.63v48.03h36.57c8.74,0,16.46-1.67,23.17-5,6.71-3.34,11.92-8.03,15.64-14.09,3.72-6.06,5.58-13.11,5.58-21.16s-1.86-15.1-5.58-21.16Z"/>
    <circle class="st19" cx="1281.03" cy="687.18" r="8.43"/>
  </g>
  <g>
    <path class="st23" d="M1198.37,386.93h-18.4l-35.88,80.5h19.09l7.13-17.25,5.98-14.15,12.77-30.82,12.76,30.82h-15.69c-2.19,1.52-3.62,4.05-3.62,6.91,0,3.08,1.65,5.77,4.11,7.24h21.07l7.13,17.25h19.55l-36-80.5Z"/>
    <path class="st19" d="M1199.37,442.94c0,3.08-1.65,5.77-4.11,7.24-1.26.76-2.74,1.19-4.32,1.19s-3.06-.43-4.32-1.19c-2.46-1.47-4.11-4.16-4.11-7.24,0-2.86,1.43-5.39,3.62-6.91,1.36-.95,3.02-1.51,4.81-1.51s3.45.56,4.82,1.51c2.18,1.52,3.61,4.05,3.61,6.91Z"/>
  </g>
  <g>
    <path class="st23" d="M1349.48,386.93h-18.4l-35.88,80.5h19.09l7.13-17.25,5.98-14.15,12.77-30.82,12.76,30.82h-15.69c-2.19,1.52-3.62,4.05-3.62,6.91,0,3.08,1.65,5.77,4.11,7.24h21.07l7.13,17.25h19.55l-36-80.5Z"/>
    <path class="st19" d="M1350.48,442.94c0,3.08-1.65,5.77-4.11,7.24-1.26.76-2.74,1.19-4.32,1.19s-3.06-.43-4.32-1.19c-2.46-1.47-4.11-4.16-4.11-7.24,0-2.86,1.43-5.39,3.62-6.91,1.36-.95,3.02-1.51,4.81-1.51s3.45.56,4.82,1.51c2.18,1.52,3.61,4.05,3.61,6.91Z"/>
  </g>
  <g>
    <path class="st23" d="M1503.92,516.93h-18.4l-35.88,80.5h19.09l7.13-17.25,5.98-14.15,12.77-30.82,12.76,30.82h-15.69c-2.19,1.52-3.62,4.05-3.62,6.91,0,3.08,1.65,5.77,4.11,7.24h21.07l7.13,17.25h19.55l-36-80.5Z"/>
    <path class="st19" d="M1504.92,572.94c0,3.08-1.65,5.77-4.11,7.24-1.26.76-2.74,1.19-4.32,1.19s-3.06-.43-4.32-1.19c-2.46-1.47-4.11-4.16-4.11-7.24,0-2.86,1.43-5.39,3.62-6.91,1.36-.95,3.02-1.51,4.81-1.51s3.45.56,4.82,1.51c2.18,1.52,3.61,4.05,3.61,6.91Z"/>
  </g>
  <g>
    <path class="st23" d="M1641.58,646.93h-18.4l-35.88,80.5h19.09l7.13-17.25,5.98-14.15,12.77-30.82,12.76,30.82h-15.69c-2.19,1.52-3.62,4.05-3.62,6.91,0,3.08,1.65,5.77,4.11,7.24h21.07l7.13,17.25h19.55l-36-80.5Z"/>
    <path class="st19" d="M1642.58,702.94c0,3.08-1.65,5.77-4.11,7.24-1.26.76-2.74,1.19-4.32,1.19s-3.06-.43-4.32-1.19c-2.46-1.47-4.11-4.16-4.11-7.24,0-2.86,1.43-5.39,3.62-6.91,1.36-.95,3.02-1.51,4.81-1.51s3.45.56,4.82,1.51c2.18,1.52,3.61,4.05,3.61,6.91Z"/>
  </g>
  <g>
    <path class="st23" d="M1413.07,646.93h-18.4l-35.88,80.5h19.09l7.13-17.25,5.98-14.15,12.77-30.82,12.76,30.82h-15.69c-2.19,1.52-3.62,4.05-3.62,6.91,0,3.08,1.65,5.77,4.11,7.24h21.07l7.13,17.25h19.55l-36-80.5Z"/>
    <path class="st19" d="M1414.07,702.94c0,3.08-1.65,5.77-4.11,7.24-1.26.76-2.74,1.19-4.32,1.19s-3.06-.43-4.32-1.19c-2.46-1.47-4.11-4.16-4.11-7.24,0-2.86,1.43-5.39,3.62-6.91,1.36-.95,3.02-1.51,4.81-1.51s3.45.56,4.82,1.51c2.18,1.52,3.61,4.05,3.61,6.91Z"/>
  </g>
  <g>
    <path class="st23" d="M1104.53,646.93h-18.4l-35.88,80.5h19.09l7.13-17.25,5.98-14.15,12.77-30.82,12.76,30.82h-15.69c-2.19,1.52-3.62,4.05-3.62,6.91,0,3.08,1.65,5.77,4.11,7.24h21.07l7.13,17.25h19.55l-36-80.5Z"/>
    <path class="st19" d="M1105.53,702.94c0,3.08-1.65,5.77-4.11,7.24-1.26.76-2.74,1.19-4.32,1.19s-3.06-.43-4.32-1.19c-2.46-1.47-4.11-4.16-4.11-7.24,0-2.86,1.43-5.39,3.62-6.91,1.36-.95,3.02-1.51,4.81-1.51s3.45.56,4.82,1.51c2.18,1.52,3.61,4.05,3.61,6.91Z"/>
  </g>
</svg>